<mxfile host="app.diagrams.net" modified="2022-02-14T10:55:51.360Z" agent="5.0 (Windows NT 10.0; Win64; x64) AppleWebKit/537.36 (KHTML, like Gecko) Chrome/97.0.4692.71 Safari/537.36" etag="6Az2LmpfwGSsVWWMECnr" version="16.5.3" type="github" pages="7">
  <diagram name="原现任案件时序图" id="XySVKxpuCLaTzKX1klEr">
    <mxGraphModel dx="1806" dy="871" grid="1" gridSize="10" guides="1" tooltips="1" connect="1" arrows="1" fold="1" page="1" pageScale="1" pageWidth="827" pageHeight="1169" math="0" shadow="0">
      <root>
        <mxCell id="RJx9GX0pr-n8kw8aM9lX-0" />
        <mxCell id="RJx9GX0pr-n8kw8aM9lX-1" parent="RJx9GX0pr-n8kw8aM9lX-0" />
        <mxCell id="RJx9GX0pr-n8kw8aM9lX-2" value="&lt;font style=&quot;vertical-align: inherit&quot;&gt;&lt;font style=&quot;vertical-align: inherit&quot;&gt;技术支持前端&lt;/font&gt;&lt;/font&gt;" style="shape=umlLifeline;perimeter=lifelinePerimeter;whiteSpace=wrap;html=1;container=1;collapsible=0;recursiveResize=0;outlineConnect=0;" parent="RJx9GX0pr-n8kw8aM9lX-1" vertex="1">
          <mxGeometry x="150" y="140" width="100" height="270" as="geometry" />
        </mxCell>
        <mxCell id="RJx9GX0pr-n8kw8aM9lX-5" value="" style="html=1;points=[];perimeter=orthogonalPerimeter;" parent="RJx9GX0pr-n8kw8aM9lX-2" vertex="1">
          <mxGeometry x="45" y="80" width="10" height="120" as="geometry" />
        </mxCell>
        <mxCell id="RJx9GX0pr-n8kw8aM9lX-3" value="技术模块" style="shape=umlLifeline;perimeter=lifelinePerimeter;whiteSpace=wrap;html=1;container=1;collapsible=0;recursiveResize=0;outlineConnect=0;" parent="RJx9GX0pr-n8kw8aM9lX-1" vertex="1">
          <mxGeometry x="349" y="140" width="130" height="270" as="geometry" />
        </mxCell>
        <mxCell id="RJx9GX0pr-n8kw8aM9lX-6" value="" style="html=1;points=[];perimeter=orthogonalPerimeter;" parent="RJx9GX0pr-n8kw8aM9lX-3" vertex="1">
          <mxGeometry x="60" y="80" width="10" height="120" as="geometry" />
        </mxCell>
        <mxCell id="tgx3HBcEQ4r8Xcu7-Alv-10" value="" style="html=1;points=[];perimeter=orthogonalPerimeter;" parent="RJx9GX0pr-n8kw8aM9lX-3" vertex="1">
          <mxGeometry x="70" y="160" width="10" height="40" as="geometry" />
        </mxCell>
        <mxCell id="tgx3HBcEQ4r8Xcu7-Alv-11" value="&lt;span style=&quot;font-size: 12px ; text-align: center ; background-color: rgb(248 , 249 , 250)&quot;&gt;1.1案件提交（）&amp;nbsp; 案件状态改为待审核&lt;/span&gt;" style="edgeStyle=orthogonalEdgeStyle;html=1;align=left;spacingLeft=2;endArrow=block;rounded=0;entryX=1;entryY=0;exitX=0.977;exitY=0.5;exitDx=0;exitDy=0;exitPerimeter=0;" parent="RJx9GX0pr-n8kw8aM9lX-3" source="RJx9GX0pr-n8kw8aM9lX-6" target="tgx3HBcEQ4r8Xcu7-Alv-10" edge="1">
          <mxGeometry relative="1" as="geometry">
            <mxPoint x="75" y="140" as="sourcePoint" />
            <Array as="points">
              <mxPoint x="105" y="140" />
              <mxPoint x="105" y="160" />
            </Array>
          </mxGeometry>
        </mxCell>
        <mxCell id="RJx9GX0pr-n8kw8aM9lX-7" value="" style="html=1;verticalAlign=bottom;endArrow=block;rounded=0;entryX=0.5;entryY=0;entryDx=0;entryDy=0;entryPerimeter=0;" parent="RJx9GX0pr-n8kw8aM9lX-1" target="RJx9GX0pr-n8kw8aM9lX-6" edge="1">
          <mxGeometry width="80" relative="1" as="geometry">
            <mxPoint x="200" y="220" as="sourcePoint" />
            <mxPoint x="380" y="220" as="targetPoint" />
          </mxGeometry>
        </mxCell>
        <mxCell id="RJx9GX0pr-n8kw8aM9lX-9" value="&lt;font style=&quot;vertical-align: inherit&quot;&gt;&lt;font style=&quot;vertical-align: inherit&quot;&gt;1.创建现任案件（）&lt;/font&gt;&lt;/font&gt;" style="text;html=1;align=center;verticalAlign=middle;resizable=0;points=[];autosize=1;strokeColor=none;fillColor=none;" parent="RJx9GX0pr-n8kw8aM9lX-1" vertex="1">
          <mxGeometry x="240" y="200" width="120" height="20" as="geometry" />
        </mxCell>
        <mxCell id="FcXuRpHlxLw0r6WC0E7l-5" value="" style="html=1;verticalAlign=bottom;endArrow=open;dashed=1;endSize=8;" parent="RJx9GX0pr-n8kw8aM9lX-1" source="RJx9GX0pr-n8kw8aM9lX-3" edge="1">
          <mxGeometry relative="1" as="geometry">
            <mxPoint x="280" y="340" as="sourcePoint" />
            <mxPoint x="200" y="340" as="targetPoint" />
          </mxGeometry>
        </mxCell>
        <mxCell id="tgx3HBcEQ4r8Xcu7-Alv-4" value="&lt;font style=&quot;vertical-align: inherit&quot;&gt;&lt;font style=&quot;vertical-align: inherit&quot;&gt;技术支持前端&lt;/font&gt;&lt;/font&gt;" style="shape=umlLifeline;perimeter=lifelinePerimeter;whiteSpace=wrap;html=1;container=1;collapsible=0;recursiveResize=0;outlineConnect=0;" parent="RJx9GX0pr-n8kw8aM9lX-1" vertex="1">
          <mxGeometry x="89" y="680" width="100" height="280" as="geometry" />
        </mxCell>
        <mxCell id="tgx3HBcEQ4r8Xcu7-Alv-5" value="" style="html=1;points=[];perimeter=orthogonalPerimeter;" parent="tgx3HBcEQ4r8Xcu7-Alv-4" vertex="1">
          <mxGeometry x="45" y="80" width="10" height="120" as="geometry" />
        </mxCell>
        <mxCell id="tgx3HBcEQ4r8Xcu7-Alv-6" value="技术模块" style="shape=umlLifeline;perimeter=lifelinePerimeter;whiteSpace=wrap;html=1;container=1;collapsible=0;recursiveResize=0;outlineConnect=0;" parent="RJx9GX0pr-n8kw8aM9lX-1" vertex="1">
          <mxGeometry x="289" y="680" width="130" height="280" as="geometry" />
        </mxCell>
        <mxCell id="tgx3HBcEQ4r8Xcu7-Alv-7" value="" style="html=1;points=[];perimeter=orthogonalPerimeter;" parent="tgx3HBcEQ4r8Xcu7-Alv-6" vertex="1">
          <mxGeometry x="60" y="80" width="10" height="120" as="geometry" />
        </mxCell>
        <mxCell id="tgx3HBcEQ4r8Xcu7-Alv-13" value="" style="html=1;points=[];perimeter=orthogonalPerimeter;" parent="tgx3HBcEQ4r8Xcu7-Alv-6" vertex="1">
          <mxGeometry x="70" y="160" width="10" height="40" as="geometry" />
        </mxCell>
        <mxCell id="tgx3HBcEQ4r8Xcu7-Alv-14" value="" style="edgeStyle=orthogonalEdgeStyle;html=1;align=left;spacingLeft=2;endArrow=block;rounded=0;entryX=1;entryY=0;exitX=1;exitY=0.497;exitDx=0;exitDy=0;exitPerimeter=0;" parent="tgx3HBcEQ4r8Xcu7-Alv-6" source="tgx3HBcEQ4r8Xcu7-Alv-7" target="tgx3HBcEQ4r8Xcu7-Alv-13" edge="1">
          <mxGeometry relative="1" as="geometry">
            <mxPoint x="75" y="140" as="sourcePoint" />
            <Array as="points">
              <mxPoint x="105" y="140" />
              <mxPoint x="105" y="160" />
            </Array>
          </mxGeometry>
        </mxCell>
        <mxCell id="tgx3HBcEQ4r8Xcu7-Alv-12" value="1.案件审核（）" style="html=1;verticalAlign=bottom;endArrow=block;rounded=0;" parent="RJx9GX0pr-n8kw8aM9lX-1" target="tgx3HBcEQ4r8Xcu7-Alv-6" edge="1">
          <mxGeometry width="80" relative="1" as="geometry">
            <mxPoint x="139" y="760" as="sourcePoint" />
            <mxPoint x="219" y="760" as="targetPoint" />
          </mxGeometry>
        </mxCell>
        <mxCell id="tgx3HBcEQ4r8Xcu7-Alv-15" value="" style="html=1;verticalAlign=bottom;endArrow=open;dashed=1;endSize=8;rounded=0;" parent="RJx9GX0pr-n8kw8aM9lX-1" edge="1">
          <mxGeometry relative="1" as="geometry">
            <mxPoint x="349" y="880" as="sourcePoint" />
            <mxPoint x="139" y="880" as="targetPoint" />
          </mxGeometry>
        </mxCell>
        <mxCell id="tgx3HBcEQ4r8Xcu7-Alv-16" value="1.1审核通过（）&lt;br&gt;&amp;nbsp;案件状态改为已完结" style="text;html=1;align=center;verticalAlign=middle;resizable=0;points=[];autosize=1;strokeColor=none;fillColor=none;" parent="RJx9GX0pr-n8kw8aM9lX-1" vertex="1">
          <mxGeometry x="400" y="820" width="130" height="30" as="geometry" />
        </mxCell>
        <mxCell id="G_6wBEW2XoETe_rV5Fr3-1" value="现认案件创建时序图" style="shape=umlFrame;whiteSpace=wrap;html=1;width=120;height=30;" parent="RJx9GX0pr-n8kw8aM9lX-1" vertex="1">
          <mxGeometry x="10" y="120" width="720" height="370" as="geometry" />
        </mxCell>
        <mxCell id="G_6wBEW2XoETe_rV5Fr3-2" value="现认案件审核时序图" style="shape=umlFrame;whiteSpace=wrap;html=1;width=130;height=30;" parent="RJx9GX0pr-n8kw8aM9lX-1" vertex="1">
          <mxGeometry x="10" y="620" width="720" height="450" as="geometry" />
        </mxCell>
      </root>
    </mxGraphModel>
  </diagram>
  <diagram name="原现认案件事件设计" id="N8mOV83er59BVY7yjHN3">
    <mxGraphModel dx="1859" dy="546" grid="1" gridSize="10" guides="1" tooltips="1" connect="1" arrows="1" fold="1" page="1" pageScale="1" pageWidth="827" pageHeight="1169" math="0" shadow="0">
      <root>
        <mxCell id="sFWC_ZGZAxWHbm_E73ft-0" />
        <mxCell id="sFWC_ZGZAxWHbm_E73ft-1" parent="sFWC_ZGZAxWHbm_E73ft-0" />
        <mxCell id="ZKJsQCSqWeG-n03xMEXC-0" value="" style="rounded=0;whiteSpace=wrap;html=1;dashed=1;fillColor=#AADA90;strokeColor=#82b366;" parent="sFWC_ZGZAxWHbm_E73ft-1" vertex="1">
          <mxGeometry x="-711" y="327" width="671" height="293" as="geometry" />
        </mxCell>
        <mxCell id="fdsACRjmGi9JIAASuTX7-3" style="edgeStyle=orthogonalEdgeStyle;rounded=0;orthogonalLoop=1;jettySize=auto;html=1;entryX=0.5;entryY=0;entryDx=0;entryDy=0;endArrow=block;endFill=1;" parent="sFWC_ZGZAxWHbm_E73ft-1" source="ZKJsQCSqWeG-n03xMEXC-11" edge="1">
          <mxGeometry relative="1" as="geometry">
            <mxPoint x="-331" y="557" as="targetPoint" />
          </mxGeometry>
        </mxCell>
        <mxCell id="fdsACRjmGi9JIAASuTX7-4" value="退回" style="edgeLabel;html=1;align=center;verticalAlign=middle;resizable=0;points=[];" parent="fdsACRjmGi9JIAASuTX7-3" vertex="1" connectable="0">
          <mxGeometry x="0.0979" relative="1" as="geometry">
            <mxPoint as="offset" />
          </mxGeometry>
        </mxCell>
        <mxCell id="ZKJsQCSqWeG-n03xMEXC-11" value="待审核" style="rounded=0;whiteSpace=wrap;html=1;" parent="sFWC_ZGZAxWHbm_E73ft-1" vertex="1">
          <mxGeometry x="-391" y="417" width="120" height="60" as="geometry" />
        </mxCell>
        <mxCell id="ZKJsQCSqWeG-n03xMEXC-18" style="edgeStyle=none;rounded=0;orthogonalLoop=1;jettySize=auto;html=1;entryX=0;entryY=0.5;entryDx=0;entryDy=0;endArrow=none;endFill=0;" parent="sFWC_ZGZAxWHbm_E73ft-1" edge="1">
          <mxGeometry relative="1" as="geometry">
            <mxPoint x="500" y="380" as="sourcePoint" />
            <mxPoint x="500" y="380" as="targetPoint" />
          </mxGeometry>
        </mxCell>
        <mxCell id="RB-smwtrd3BhhZTNML_I-0" value="现认案件状态迁移" style="text;html=1;align=center;verticalAlign=middle;resizable=0;points=[];autosize=1;strokeColor=none;fillColor=none;" parent="sFWC_ZGZAxWHbm_E73ft-1" vertex="1">
          <mxGeometry x="-711" y="336" width="110" height="20" as="geometry" />
        </mxCell>
        <mxCell id="zhxlGpXSoZ1X9MbQopwY-1" value="已退回" style="rounded=0;whiteSpace=wrap;html=1;" parent="sFWC_ZGZAxWHbm_E73ft-1" vertex="1">
          <mxGeometry x="-391" y="555" width="120" height="60" as="geometry" />
        </mxCell>
        <mxCell id="8vObPOlJb84hjjjBJuNL-1" style="edgeStyle=none;rounded=0;orthogonalLoop=1;jettySize=auto;html=1;startArrow=none;startFill=0;endArrow=block;endFill=1;" parent="sFWC_ZGZAxWHbm_E73ft-1" source="8vObPOlJb84hjjjBJuNL-0" target="ZKJsQCSqWeG-n03xMEXC-11" edge="1">
          <mxGeometry relative="1" as="geometry" />
        </mxCell>
        <mxCell id="k2n-dwp7JhImMaH8DRaa-3" value="提交" style="edgeLabel;html=1;align=center;verticalAlign=middle;resizable=0;points=[];" parent="8vObPOlJb84hjjjBJuNL-1" vertex="1" connectable="0">
          <mxGeometry x="-0.0956" y="1" relative="1" as="geometry">
            <mxPoint y="-9" as="offset" />
          </mxGeometry>
        </mxCell>
        <mxCell id="8vObPOlJb84hjjjBJuNL-0" value="待提交" style="rounded=0;whiteSpace=wrap;html=1;" parent="sFWC_ZGZAxWHbm_E73ft-1" vertex="1">
          <mxGeometry x="-611" y="417" width="120" height="60" as="geometry" />
        </mxCell>
        <mxCell id="k2n-dwp7JhImMaH8DRaa-1" style="edgeStyle=none;rounded=0;orthogonalLoop=1;jettySize=auto;html=1;startArrow=none;startFill=0;endArrow=block;endFill=1;" parent="sFWC_ZGZAxWHbm_E73ft-1" edge="1">
          <mxGeometry relative="1" as="geometry">
            <mxPoint x="-711" y="447" as="sourcePoint" />
            <mxPoint x="-610" y="446.58" as="targetPoint" />
          </mxGeometry>
        </mxCell>
        <mxCell id="k2n-dwp7JhImMaH8DRaa-9" value="&lt;span style=&quot;font-size: 12px ; background-color: rgb(248 , 249 , 250)&quot;&gt;保存&lt;/span&gt;" style="edgeLabel;html=1;align=center;verticalAlign=middle;resizable=0;points=[];" parent="k2n-dwp7JhImMaH8DRaa-1" vertex="1" connectable="0">
          <mxGeometry x="-0.231" relative="1" as="geometry">
            <mxPoint as="offset" />
          </mxGeometry>
        </mxCell>
        <mxCell id="k2n-dwp7JhImMaH8DRaa-7" value="" style="curved=1;endArrow=block;html=1;rounded=0;exitX=0.063;exitY=1.042;exitDx=0;exitDy=0;exitPerimeter=0;endFill=1;" parent="sFWC_ZGZAxWHbm_E73ft-1" target="ZKJsQCSqWeG-n03xMEXC-11" edge="1">
          <mxGeometry width="50" height="50" relative="1" as="geometry">
            <mxPoint x="-714.7" y="447.84000000000015" as="sourcePoint" />
            <mxPoint x="-241" y="337" as="targetPoint" />
            <Array as="points">
              <mxPoint x="-521" y="357" />
              <mxPoint x="-311" y="347" />
            </Array>
          </mxGeometry>
        </mxCell>
        <mxCell id="k2n-dwp7JhImMaH8DRaa-8" value="提交" style="edgeLabel;html=1;align=center;verticalAlign=middle;resizable=0;points=[];" parent="k2n-dwp7JhImMaH8DRaa-7" vertex="1" connectable="0">
          <mxGeometry x="0.0291" y="-7" relative="1" as="geometry">
            <mxPoint as="offset" />
          </mxGeometry>
        </mxCell>
        <mxCell id="fdsACRjmGi9JIAASuTX7-6" style="edgeStyle=orthogonalEdgeStyle;rounded=0;orthogonalLoop=1;jettySize=auto;html=1;exitX=0.5;exitY=1;exitDx=0;exitDy=0;" parent="sFWC_ZGZAxWHbm_E73ft-1" edge="1">
          <mxGeometry relative="1" as="geometry">
            <mxPoint x="-331" y="637" as="sourcePoint" />
            <mxPoint x="-331" y="637" as="targetPoint" />
          </mxGeometry>
        </mxCell>
        <mxCell id="PMsnMHZFQMTpGYGAEBXj-2" style="edgeStyle=orthogonalEdgeStyle;rounded=0;orthogonalLoop=1;jettySize=auto;html=1;startArrow=none;startFill=0;endArrow=block;endFill=1;exitX=0;exitY=0.5;exitDx=0;exitDy=0;curved=1;" parent="sFWC_ZGZAxWHbm_E73ft-1" source="zhxlGpXSoZ1X9MbQopwY-1" edge="1">
          <mxGeometry relative="1" as="geometry">
            <mxPoint x="-371" y="597" as="sourcePoint" />
            <mxPoint x="-391" y="447" as="targetPoint" />
            <Array as="points">
              <mxPoint x="-460" y="585" />
              <mxPoint x="-460" y="447" />
            </Array>
          </mxGeometry>
        </mxCell>
        <mxCell id="PMsnMHZFQMTpGYGAEBXj-3" value="重新提交" style="edgeLabel;html=1;align=center;verticalAlign=middle;resizable=0;points=[];" parent="PMsnMHZFQMTpGYGAEBXj-2" vertex="1" connectable="0">
          <mxGeometry x="-0.0956" y="1" relative="1" as="geometry">
            <mxPoint y="-9" as="offset" />
          </mxGeometry>
        </mxCell>
        <mxCell id="sK8mU2PaV1SSycSLhcYn-2" value="已发布" style="rounded=0;whiteSpace=wrap;html=1;" vertex="1" parent="sFWC_ZGZAxWHbm_E73ft-1">
          <mxGeometry x="-190" y="417" width="120" height="60" as="geometry" />
        </mxCell>
        <mxCell id="sK8mU2PaV1SSycSLhcYn-3" style="edgeStyle=none;rounded=0;orthogonalLoop=1;jettySize=auto;html=1;startArrow=none;startFill=0;endArrow=block;endFill=1;" edge="1" parent="sFWC_ZGZAxWHbm_E73ft-1">
          <mxGeometry relative="1" as="geometry">
            <mxPoint x="-271" y="447" as="sourcePoint" />
            <mxPoint x="-190" y="447" as="targetPoint" />
          </mxGeometry>
        </mxCell>
        <mxCell id="sK8mU2PaV1SSycSLhcYn-4" value="发布" style="edgeLabel;html=1;align=center;verticalAlign=middle;resizable=0;points=[];" vertex="1" connectable="0" parent="sK8mU2PaV1SSycSLhcYn-3">
          <mxGeometry x="-0.0956" y="1" relative="1" as="geometry">
            <mxPoint y="-9" as="offset" />
          </mxGeometry>
        </mxCell>
      </root>
    </mxGraphModel>
  </diagram>
  <diagram name="原现任案件创建行为设计" id="yqarIrvG9sYVbD1xUvvH">
    <mxGraphModel dx="1806" dy="955" grid="1" gridSize="10" guides="0" tooltips="1" connect="1" arrows="1" fold="1" page="1" pageScale="1" pageWidth="827" pageHeight="1169" math="0" shadow="0">
      <root>
        <mxCell id="8JbM_fTRed26Rq06Y4OV-0" />
        <mxCell id="8JbM_fTRed26Rq06Y4OV-1" parent="8JbM_fTRed26Rq06Y4OV-0" />
        <mxCell id="MjwGt61ITPXpIvT3n5Yz-0" value="接口-BFF服务" style="shape=umlLifeline;perimeter=lifelinePerimeter;whiteSpace=wrap;html=1;container=1;collapsible=0;recursiveResize=0;outlineConnect=0;" parent="8JbM_fTRed26Rq06Y4OV-1" vertex="1">
          <mxGeometry x="270" y="110" width="100" height="450" as="geometry" />
        </mxCell>
        <mxCell id="MjwGt61ITPXpIvT3n5Yz-1" value="" style="html=1;points=[];perimeter=orthogonalPerimeter;" parent="MjwGt61ITPXpIvT3n5Yz-0" vertex="1">
          <mxGeometry x="45" y="80" width="10" height="340" as="geometry" />
        </mxCell>
        <mxCell id="MjwGt61ITPXpIvT3n5Yz-2" value="1.创建现认案件()" style="html=1;verticalAlign=bottom;endArrow=block;rounded=0;" parent="MjwGt61ITPXpIvT3n5Yz-0" edge="1">
          <mxGeometry width="80" relative="1" as="geometry">
            <mxPoint x="-145" y="80" as="sourcePoint" />
            <mxPoint x="45" y="80" as="targetPoint" />
          </mxGeometry>
        </mxCell>
        <mxCell id="MjwGt61ITPXpIvT3n5Yz-3" value="" style="html=1;verticalAlign=bottom;endArrow=open;dashed=1;endSize=8;rounded=0;curved=1;entryX=1.067;entryY=0.844;entryDx=0;entryDy=0;entryPerimeter=0;" parent="MjwGt61ITPXpIvT3n5Yz-0" edge="1">
          <mxGeometry relative="1" as="geometry">
            <mxPoint x="45" y="420" as="sourcePoint" />
            <mxPoint x="-144.32999999999993" y="420.08000000000015" as="targetPoint" />
          </mxGeometry>
        </mxCell>
        <mxCell id="MjwGt61ITPXpIvT3n5Yz-4" value="领域层-质量反馈跟踪原子服务" style="shape=umlLifeline;perimeter=lifelinePerimeter;whiteSpace=wrap;html=1;container=1;collapsible=0;recursiveResize=0;outlineConnect=0;" parent="8JbM_fTRed26Rq06Y4OV-1" vertex="1">
          <mxGeometry x="640" y="110" width="140" height="450" as="geometry" />
        </mxCell>
        <mxCell id="MjwGt61ITPXpIvT3n5Yz-5" value="" style="html=1;points=[];perimeter=orthogonalPerimeter;" parent="MjwGt61ITPXpIvT3n5Yz-4" vertex="1">
          <mxGeometry x="65" y="230" width="10" height="150" as="geometry" />
        </mxCell>
        <mxCell id="MjwGt61ITPXpIvT3n5Yz-6" value="" style="edgeStyle=orthogonalEdgeStyle;html=1;align=left;spacingLeft=2;endArrow=block;rounded=0;entryX=1;entryY=0;exitX=1;exitY=0.615;exitDx=0;exitDy=0;exitPerimeter=0;" parent="MjwGt61ITPXpIvT3n5Yz-4" edge="1">
          <mxGeometry relative="1" as="geometry">
            <mxPoint x="75" y="262.70000000000005" as="sourcePoint" />
            <Array as="points">
              <mxPoint x="110" y="263" />
              <mxPoint x="110" y="282" />
            </Array>
            <mxPoint x="85" y="282" as="targetPoint" />
          </mxGeometry>
        </mxCell>
        <mxCell id="MjwGt61ITPXpIvT3n5Yz-7" value="" style="html=1;points=[];perimeter=orthogonalPerimeter;" parent="MjwGt61ITPXpIvT3n5Yz-4" vertex="1">
          <mxGeometry x="75" y="282" width="10" height="40" as="geometry" />
        </mxCell>
        <mxCell id="MjwGt61ITPXpIvT3n5Yz-39" value="1.2.1 创建现认案件()" style="html=1;verticalAlign=bottom;endArrow=block;rounded=0;" parent="MjwGt61ITPXpIvT3n5Yz-4" edge="1">
          <mxGeometry width="80" relative="1" as="geometry">
            <mxPoint x="-124" y="230" as="sourcePoint" />
            <mxPoint x="66" y="230" as="targetPoint" />
          </mxGeometry>
        </mxCell>
        <mxCell id="MjwGt61ITPXpIvT3n5Yz-8" value="技术支持前端" style="shape=umlLifeline;perimeter=lifelinePerimeter;whiteSpace=wrap;html=1;container=1;collapsible=0;recursiveResize=0;outlineConnect=0;" parent="8JbM_fTRed26Rq06Y4OV-1" vertex="1">
          <mxGeometry x="70" y="110" width="100" height="450" as="geometry" />
        </mxCell>
        <mxCell id="MjwGt61ITPXpIvT3n5Yz-9" value="" style="html=1;points=[];perimeter=orthogonalPerimeter;" parent="MjwGt61ITPXpIvT3n5Yz-8" vertex="1">
          <mxGeometry x="45" y="80" width="10" height="360" as="geometry" />
        </mxCell>
        <mxCell id="MjwGt61ITPXpIvT3n5Yz-10" value="应用层-技术支持聚合服务" style="shape=umlLifeline;perimeter=lifelinePerimeter;whiteSpace=wrap;html=1;container=1;collapsible=0;recursiveResize=0;outlineConnect=0;" parent="8JbM_fTRed26Rq06Y4OV-1" vertex="1">
          <mxGeometry x="460" y="110" width="100" height="450" as="geometry" />
        </mxCell>
        <mxCell id="MjwGt61ITPXpIvT3n5Yz-11" value="" style="html=1;points=[];perimeter=orthogonalPerimeter;" parent="MjwGt61ITPXpIvT3n5Yz-10" vertex="1">
          <mxGeometry x="45" y="170" width="10" height="240" as="geometry" />
        </mxCell>
        <mxCell id="MjwGt61ITPXpIvT3n5Yz-12" value="1.2调用现认案件聚合&lt;br&gt;创建现认案件()" style="html=1;verticalAlign=bottom;endArrow=block;rounded=0;" parent="MjwGt61ITPXpIvT3n5Yz-10" edge="1">
          <mxGeometry width="80" relative="1" as="geometry">
            <mxPoint x="-135" y="169" as="sourcePoint" />
            <mxPoint x="45" y="169" as="targetPoint" />
          </mxGeometry>
        </mxCell>
        <mxCell id="MjwGt61ITPXpIvT3n5Yz-13" value="" style="html=1;verticalAlign=bottom;endArrow=open;dashed=1;endSize=8;rounded=0;curved=1;" parent="MjwGt61ITPXpIvT3n5Yz-10" edge="1">
          <mxGeometry relative="1" as="geometry">
            <mxPoint x="50" y="410" as="sourcePoint" />
            <mxPoint x="-135" y="410" as="targetPoint" />
          </mxGeometry>
        </mxCell>
        <mxCell id="GQfXcQDxOzZfsngUOrCM-2" value="" style="html=1;points=[];perimeter=orthogonalPerimeter;fillColor=default;" parent="MjwGt61ITPXpIvT3n5Yz-10" vertex="1">
          <mxGeometry x="-135" y="106" width="10" height="40" as="geometry" />
        </mxCell>
        <mxCell id="MjwGt61ITPXpIvT3n5Yz-14" value="1.2.1.1保存为待审核()" style="text;html=1;align=center;verticalAlign=middle;resizable=0;points=[];autosize=1;strokeColor=none;fillColor=none;" parent="8JbM_fTRed26Rq06Y4OV-1" vertex="1">
          <mxGeometry x="760" y="370" width="130" height="20" as="geometry" />
        </mxCell>
        <mxCell id="MjwGt61ITPXpIvT3n5Yz-40" value="" style="html=1;verticalAlign=bottom;endArrow=open;dashed=1;endSize=8;rounded=0;curved=1;entryX=0.967;entryY=0.955;entryDx=0;entryDy=0;entryPerimeter=0;exitX=0.1;exitY=0.989;exitDx=0;exitDy=0;exitPerimeter=0;" parent="8JbM_fTRed26Rq06Y4OV-1" edge="1">
          <mxGeometry relative="1" as="geometry">
            <mxPoint x="706" y="490.02" as="sourcePoint" />
            <mxPoint x="514.6699999999996" y="490.2000000000003" as="targetPoint" />
          </mxGeometry>
        </mxCell>
        <mxCell id="0m1NF_5VxaDjz1XArJMh-0" value="MQ消息服务" style="shape=umlLifeline;perimeter=lifelinePerimeter;whiteSpace=wrap;html=1;container=1;collapsible=0;recursiveResize=0;outlineConnect=0;fillColor=none;" parent="8JbM_fTRed26Rq06Y4OV-1" vertex="1">
          <mxGeometry x="880" y="110" width="100" height="450" as="geometry" />
        </mxCell>
        <mxCell id="czP3-v7MEstI9r7--OM0-0" value="" style="html=1;points=[];perimeter=orthogonalPerimeter;fillColor=default;" parent="0m1NF_5VxaDjz1XArJMh-0" vertex="1">
          <mxGeometry x="45" y="334" width="10" height="80" as="geometry" />
        </mxCell>
        <mxCell id="czP3-v7MEstI9r7--OM0-1" value="1.2.1.2&amp;nbsp; 事件通知 发送邮件命令&lt;br&gt;事件总线，发送邮箱()" style="html=1;verticalAlign=bottom;endArrow=block;rounded=0;exitX=0.886;exitY=0.55;exitDx=0;exitDy=0;exitPerimeter=0;" parent="0m1NF_5VxaDjz1XArJMh-0" edge="1">
          <mxGeometry width="80" relative="1" as="geometry">
            <mxPoint x="-165.13999999999987" y="332" as="sourcePoint" />
            <mxPoint x="46" y="333" as="targetPoint" />
          </mxGeometry>
        </mxCell>
        <mxCell id="ZzrVaYMakKNdKp9aKmjO-0" value="只发送现认案件状态" style="shape=note;size=20;whiteSpace=wrap;html=1;fillColor=#FFCBCF;strokeColor=#d79b00;" parent="8JbM_fTRed26Rq06Y4OV-1" vertex="1">
          <mxGeometry x="734.5" y="450" width="181" height="20" as="geometry" />
        </mxCell>
        <mxCell id="uOruYXRW9UYwskfHLZbk-0" value="现认案件创建行为" style="shape=umlFrame;whiteSpace=wrap;html=1;width=150;height=30;" parent="8JbM_fTRed26Rq06Y4OV-1" vertex="1">
          <mxGeometry x="40" y="70" width="1130" height="500" as="geometry" />
        </mxCell>
        <mxCell id="4C-c1Bk8IHZpv_3pSN01-0" value="公共邮箱" style="shape=umlLifeline;perimeter=lifelinePerimeter;whiteSpace=wrap;html=1;container=1;collapsible=0;recursiveResize=0;outlineConnect=0;fillColor=none;" parent="8JbM_fTRed26Rq06Y4OV-1" vertex="1">
          <mxGeometry x="1060" y="110" width="100" height="450" as="geometry" />
        </mxCell>
        <mxCell id="4C-c1Bk8IHZpv_3pSN01-1" value="" style="html=1;points=[];perimeter=orthogonalPerimeter;fillColor=default;" parent="4C-c1Bk8IHZpv_3pSN01-0" vertex="1">
          <mxGeometry x="47" y="335" width="10" height="56" as="geometry" />
        </mxCell>
        <mxCell id="4C-c1Bk8IHZpv_3pSN01-3" value="1.2.1.2.1 事件通知 发送邮箱()" style="html=1;verticalAlign=bottom;endArrow=block;rounded=0;" parent="8JbM_fTRed26Rq06Y4OV-1" target="4C-c1Bk8IHZpv_3pSN01-0" edge="1">
          <mxGeometry width="80" relative="1" as="geometry">
            <mxPoint x="935" y="444" as="sourcePoint" />
            <mxPoint x="1015" y="444" as="targetPoint" />
          </mxGeometry>
        </mxCell>
        <mxCell id="GQfXcQDxOzZfsngUOrCM-3" value="1.1 参数合规性校验()" style="edgeStyle=orthogonalEdgeStyle;html=1;align=left;spacingLeft=2;endArrow=block;rounded=0;entryX=1;entryY=0;exitX=0.895;exitY=0.047;exitDx=0;exitDy=0;exitPerimeter=0;" parent="8JbM_fTRed26Rq06Y4OV-1" edge="1">
          <mxGeometry relative="1" as="geometry">
            <mxPoint x="324.95000000000005" y="195.98000000000013" as="sourcePoint" />
            <Array as="points">
              <mxPoint x="361" y="196" />
              <mxPoint x="361" y="216" />
            </Array>
            <mxPoint x="336" y="215.9999999999999" as="targetPoint" />
          </mxGeometry>
        </mxCell>
      </root>
    </mxGraphModel>
  </diagram>
  <diagram name="现认案件聚合根2" id="6Jb17HPBbGtqNKN9_Etw">
    <mxGraphModel dx="1246" dy="1828" grid="1" gridSize="10" guides="1" tooltips="1" connect="1" arrows="1" fold="1" page="1" pageScale="1" pageWidth="827" pageHeight="1169" math="0" shadow="0">
      <root>
        <mxCell id="aG2DRF024pispLoMt5vq-0" />
        <mxCell id="aG2DRF024pispLoMt5vq-1" parent="aG2DRF024pispLoMt5vq-0" />
        <mxCell id="4yESnbaFMz6oYUOKD-Xd-0" value="现认案件" style="shape=table;startSize=30;container=1;collapsible=1;childLayout=tableLayout;fixedRows=1;rowLines=0;fontStyle=1;align=center;resizeLast=1;fillColor=#CFC86B;strokeColor=#1A1A1A;" parent="aG2DRF024pispLoMt5vq-1" vertex="1">
          <mxGeometry x="570" y="-680" width="180" height="360" as="geometry" />
        </mxCell>
        <mxCell id="4yESnbaFMz6oYUOKD-Xd-1" value="" style="shape=partialRectangle;collapsible=0;dropTarget=0;pointerEvents=0;fillColor=#CFC86B;top=0;left=0;bottom=1;right=0;points=[[0,0.5],[1,0.5]];portConstraint=eastwest;" parent="4yESnbaFMz6oYUOKD-Xd-0" vertex="1">
          <mxGeometry y="30" width="180" height="30" as="geometry" />
        </mxCell>
        <mxCell id="4yESnbaFMz6oYUOKD-Xd-2" value="PK" style="shape=partialRectangle;connectable=0;fillColor=#CFC86B;top=0;left=0;bottom=0;right=0;fontStyle=1;overflow=hidden;strokeColor=#b85450;" parent="4yESnbaFMz6oYUOKD-Xd-1" vertex="1">
          <mxGeometry width="30" height="30" as="geometry">
            <mxRectangle width="30" height="30" as="alternateBounds" />
          </mxGeometry>
        </mxCell>
        <mxCell id="4yESnbaFMz6oYUOKD-Xd-3" value="id" style="shape=partialRectangle;connectable=0;fillColor=#CFC86B;top=0;left=0;bottom=0;right=0;align=left;spacingLeft=6;fontStyle=5;overflow=hidden;strokeColor=#b85450;" parent="4yESnbaFMz6oYUOKD-Xd-1" vertex="1">
          <mxGeometry x="30" width="150" height="30" as="geometry">
            <mxRectangle width="150" height="30" as="alternateBounds" />
          </mxGeometry>
        </mxCell>
        <mxCell id="4yESnbaFMz6oYUOKD-Xd-4" value="" style="shape=partialRectangle;collapsible=0;dropTarget=0;pointerEvents=0;fillColor=#CFC86B;top=0;left=0;bottom=0;right=0;points=[[0,0.5],[1,0.5]];portConstraint=eastwest;" parent="4yESnbaFMz6oYUOKD-Xd-0" vertex="1">
          <mxGeometry y="60" width="180" height="30" as="geometry" />
        </mxCell>
        <mxCell id="4yESnbaFMz6oYUOKD-Xd-5" value="" style="shape=partialRectangle;connectable=0;fillColor=#CFC86B;top=0;left=0;bottom=0;right=0;editable=1;overflow=hidden;strokeColor=#b85450;" parent="4yESnbaFMz6oYUOKD-Xd-4" vertex="1">
          <mxGeometry width="30" height="30" as="geometry">
            <mxRectangle width="30" height="30" as="alternateBounds" />
          </mxGeometry>
        </mxCell>
        <mxCell id="4yESnbaFMz6oYUOKD-Xd-6" value="案件码" style="shape=partialRectangle;connectable=0;fillColor=#CFC86B;top=0;left=0;bottom=0;right=0;align=left;spacingLeft=6;overflow=hidden;strokeColor=#b85450;" parent="4yESnbaFMz6oYUOKD-Xd-4" vertex="1">
          <mxGeometry x="30" width="150" height="30" as="geometry">
            <mxRectangle width="150" height="30" as="alternateBounds" />
          </mxGeometry>
        </mxCell>
        <mxCell id="4yESnbaFMz6oYUOKD-Xd-7" value="" style="shape=partialRectangle;collapsible=0;dropTarget=0;pointerEvents=0;fillColor=#CFC86B;top=0;left=0;bottom=0;right=0;points=[[0,0.5],[1,0.5]];portConstraint=eastwest;" parent="4yESnbaFMz6oYUOKD-Xd-0" vertex="1">
          <mxGeometry y="90" width="180" height="30" as="geometry" />
        </mxCell>
        <mxCell id="4yESnbaFMz6oYUOKD-Xd-8" value="" style="shape=partialRectangle;connectable=0;fillColor=#CFC86B;top=0;left=0;bottom=0;right=0;editable=1;overflow=hidden;strokeColor=#b85450;" parent="4yESnbaFMz6oYUOKD-Xd-7" vertex="1">
          <mxGeometry width="30" height="30" as="geometry">
            <mxRectangle width="30" height="30" as="alternateBounds" />
          </mxGeometry>
        </mxCell>
        <mxCell id="4yESnbaFMz6oYUOKD-Xd-9" value="案件名称" style="shape=partialRectangle;connectable=0;fillColor=#CFC86B;top=0;left=0;bottom=0;right=0;align=left;spacingLeft=6;overflow=hidden;strokeColor=#b85450;" parent="4yESnbaFMz6oYUOKD-Xd-7" vertex="1">
          <mxGeometry x="30" width="150" height="30" as="geometry">
            <mxRectangle width="150" height="30" as="alternateBounds" />
          </mxGeometry>
        </mxCell>
        <mxCell id="4yESnbaFMz6oYUOKD-Xd-10" value="" style="shape=partialRectangle;collapsible=0;dropTarget=0;pointerEvents=0;fillColor=#CFC86B;top=0;left=0;bottom=0;right=0;points=[[0,0.5],[1,0.5]];portConstraint=eastwest;" parent="4yESnbaFMz6oYUOKD-Xd-0" vertex="1">
          <mxGeometry y="120" width="180" height="30" as="geometry" />
        </mxCell>
        <mxCell id="4yESnbaFMz6oYUOKD-Xd-11" value="" style="shape=partialRectangle;connectable=0;fillColor=#CFC86B;top=0;left=0;bottom=0;right=0;editable=1;overflow=hidden;strokeColor=#b85450;" parent="4yESnbaFMz6oYUOKD-Xd-10" vertex="1">
          <mxGeometry width="30" height="30" as="geometry">
            <mxRectangle width="30" height="30" as="alternateBounds" />
          </mxGeometry>
        </mxCell>
        <mxCell id="4yESnbaFMz6oYUOKD-Xd-12" value="案件类型" style="shape=partialRectangle;connectable=0;fillColor=#CFC86B;top=0;left=0;bottom=0;right=0;align=left;spacingLeft=6;overflow=hidden;strokeColor=#b85450;" parent="4yESnbaFMz6oYUOKD-Xd-10" vertex="1">
          <mxGeometry x="30" width="150" height="30" as="geometry">
            <mxRectangle width="150" height="30" as="alternateBounds" />
          </mxGeometry>
        </mxCell>
        <mxCell id="4yESnbaFMz6oYUOKD-Xd-13" value="" style="shape=partialRectangle;collapsible=0;dropTarget=0;pointerEvents=0;fillColor=#CFC86B;top=0;left=0;bottom=0;right=0;points=[[0,0.5],[1,0.5]];portConstraint=eastwest;" parent="4yESnbaFMz6oYUOKD-Xd-0" vertex="1">
          <mxGeometry y="150" width="180" height="30" as="geometry" />
        </mxCell>
        <mxCell id="4yESnbaFMz6oYUOKD-Xd-14" value="" style="shape=partialRectangle;connectable=0;fillColor=#CFC86B;top=0;left=0;bottom=0;right=0;editable=1;overflow=hidden;strokeColor=#b85450;" parent="4yESnbaFMz6oYUOKD-Xd-13" vertex="1">
          <mxGeometry width="30" height="30" as="geometry">
            <mxRectangle width="30" height="30" as="alternateBounds" />
          </mxGeometry>
        </mxCell>
        <mxCell id="4yESnbaFMz6oYUOKD-Xd-15" value="案件状态" style="shape=partialRectangle;connectable=0;fillColor=#CFC86B;top=0;left=0;bottom=0;right=0;align=left;spacingLeft=6;overflow=hidden;strokeColor=#b85450;" parent="4yESnbaFMz6oYUOKD-Xd-13" vertex="1">
          <mxGeometry x="30" width="150" height="30" as="geometry">
            <mxRectangle width="150" height="30" as="alternateBounds" />
          </mxGeometry>
        </mxCell>
        <mxCell id="4yESnbaFMz6oYUOKD-Xd-25" value="" style="shape=partialRectangle;collapsible=0;dropTarget=0;pointerEvents=0;fillColor=#CFC86B;top=0;left=0;bottom=0;right=0;points=[[0,0.5],[1,0.5]];portConstraint=eastwest;" parent="4yESnbaFMz6oYUOKD-Xd-0" vertex="1">
          <mxGeometry y="180" width="180" height="30" as="geometry" />
        </mxCell>
        <mxCell id="4yESnbaFMz6oYUOKD-Xd-26" value="" style="shape=partialRectangle;connectable=0;fillColor=#CFC86B;top=0;left=0;bottom=0;right=0;editable=1;overflow=hidden;strokeColor=#b85450;" parent="4yESnbaFMz6oYUOKD-Xd-25" vertex="1">
          <mxGeometry width="30" height="30" as="geometry">
            <mxRectangle width="30" height="30" as="alternateBounds" />
          </mxGeometry>
        </mxCell>
        <mxCell id="4yESnbaFMz6oYUOKD-Xd-27" value="FTR" style="shape=partialRectangle;connectable=0;fillColor=#CFC86B;top=0;left=0;bottom=0;right=0;align=left;spacingLeft=6;overflow=hidden;strokeColor=#b85450;" parent="4yESnbaFMz6oYUOKD-Xd-25" vertex="1">
          <mxGeometry x="30" width="150" height="30" as="geometry">
            <mxRectangle width="150" height="30" as="alternateBounds" />
          </mxGeometry>
        </mxCell>
        <mxCell id="ZxGiSKHDTsfR3CuNod83-1" value="" style="shape=partialRectangle;collapsible=0;dropTarget=0;pointerEvents=0;fillColor=#CFC86B;top=0;left=0;bottom=0;right=0;points=[[0,0.5],[1,0.5]];portConstraint=eastwest;" parent="4yESnbaFMz6oYUOKD-Xd-0" vertex="1">
          <mxGeometry y="210" width="180" height="30" as="geometry" />
        </mxCell>
        <mxCell id="ZxGiSKHDTsfR3CuNod83-2" value="" style="shape=partialRectangle;connectable=0;fillColor=#CFC86B;top=0;left=0;bottom=0;right=0;editable=1;overflow=hidden;strokeColor=#b85450;" parent="ZxGiSKHDTsfR3CuNod83-1" vertex="1">
          <mxGeometry width="30" height="30" as="geometry">
            <mxRectangle width="30" height="30" as="alternateBounds" />
          </mxGeometry>
        </mxCell>
        <mxCell id="ZxGiSKHDTsfR3CuNod83-3" value="零件" style="shape=partialRectangle;connectable=0;fillColor=#CFC86B;top=0;left=0;bottom=0;right=0;align=left;spacingLeft=6;overflow=hidden;strokeColor=#b85450;" parent="ZxGiSKHDTsfR3CuNod83-1" vertex="1">
          <mxGeometry x="30" width="150" height="30" as="geometry">
            <mxRectangle width="150" height="30" as="alternateBounds" />
          </mxGeometry>
        </mxCell>
        <mxCell id="ZxGiSKHDTsfR3CuNod83-38" value="" style="shape=partialRectangle;collapsible=0;dropTarget=0;pointerEvents=0;fillColor=#CFC86B;top=0;left=0;bottom=0;right=0;points=[[0,0.5],[1,0.5]];portConstraint=eastwest;" parent="4yESnbaFMz6oYUOKD-Xd-0" vertex="1">
          <mxGeometry y="240" width="180" height="30" as="geometry" />
        </mxCell>
        <mxCell id="ZxGiSKHDTsfR3CuNod83-39" value="" style="shape=partialRectangle;connectable=0;fillColor=#CFC86B;top=0;left=0;bottom=0;right=0;editable=1;overflow=hidden;strokeColor=#b85450;" parent="ZxGiSKHDTsfR3CuNod83-38" vertex="1">
          <mxGeometry width="30" height="30" as="geometry">
            <mxRectangle width="30" height="30" as="alternateBounds" />
          </mxGeometry>
        </mxCell>
        <mxCell id="ZxGiSKHDTsfR3CuNod83-40" value="工单" style="shape=partialRectangle;connectable=0;fillColor=#CFC86B;top=0;left=0;bottom=0;right=0;align=left;spacingLeft=6;overflow=hidden;strokeColor=#b85450;" parent="ZxGiSKHDTsfR3CuNod83-38" vertex="1">
          <mxGeometry x="30" width="150" height="30" as="geometry">
            <mxRectangle width="150" height="30" as="alternateBounds" />
          </mxGeometry>
        </mxCell>
        <mxCell id="ZxGiSKHDTsfR3CuNod83-41" value="" style="shape=partialRectangle;collapsible=0;dropTarget=0;pointerEvents=0;fillColor=#CFC86B;top=0;left=0;bottom=0;right=0;points=[[0,0.5],[1,0.5]];portConstraint=eastwest;" parent="4yESnbaFMz6oYUOKD-Xd-0" vertex="1">
          <mxGeometry y="270" width="180" height="30" as="geometry" />
        </mxCell>
        <mxCell id="ZxGiSKHDTsfR3CuNod83-42" value="" style="shape=partialRectangle;connectable=0;fillColor=#CFC86B;top=0;left=0;bottom=0;right=0;editable=1;overflow=hidden;strokeColor=#b85450;" parent="ZxGiSKHDTsfR3CuNod83-41" vertex="1">
          <mxGeometry width="30" height="30" as="geometry">
            <mxRectangle width="30" height="30" as="alternateBounds" />
          </mxGeometry>
        </mxCell>
        <mxCell id="ZxGiSKHDTsfR3CuNod83-43" value="填表人" style="shape=partialRectangle;connectable=0;fillColor=#CFC86B;top=0;left=0;bottom=0;right=0;align=left;spacingLeft=6;overflow=hidden;strokeColor=#b85450;" parent="ZxGiSKHDTsfR3CuNod83-41" vertex="1">
          <mxGeometry x="30" width="150" height="30" as="geometry">
            <mxRectangle width="150" height="30" as="alternateBounds" />
          </mxGeometry>
        </mxCell>
        <mxCell id="ZxGiSKHDTsfR3CuNod83-44" value="" style="shape=partialRectangle;collapsible=0;dropTarget=0;pointerEvents=0;fillColor=#CFC86B;top=0;left=0;bottom=0;right=0;points=[[0,0.5],[1,0.5]];portConstraint=eastwest;" parent="4yESnbaFMz6oYUOKD-Xd-0" vertex="1">
          <mxGeometry y="300" width="180" height="30" as="geometry" />
        </mxCell>
        <mxCell id="ZxGiSKHDTsfR3CuNod83-45" value="" style="shape=partialRectangle;connectable=0;fillColor=#CFC86B;top=0;left=0;bottom=0;right=0;editable=1;overflow=hidden;strokeColor=#b85450;" parent="ZxGiSKHDTsfR3CuNod83-44" vertex="1">
          <mxGeometry width="30" height="30" as="geometry">
            <mxRectangle width="30" height="30" as="alternateBounds" />
          </mxGeometry>
        </mxCell>
        <mxCell id="ZxGiSKHDTsfR3CuNod83-46" value="车型" style="shape=partialRectangle;connectable=0;fillColor=#CFC86B;top=0;left=0;bottom=0;right=0;align=left;spacingLeft=6;overflow=hidden;strokeColor=#b85450;" parent="ZxGiSKHDTsfR3CuNod83-44" vertex="1">
          <mxGeometry x="30" width="150" height="30" as="geometry">
            <mxRectangle width="150" height="30" as="alternateBounds" />
          </mxGeometry>
        </mxCell>
        <mxCell id="4yESnbaFMz6oYUOKD-Xd-82" value="" style="shape=partialRectangle;collapsible=0;dropTarget=0;pointerEvents=0;fillColor=#CFC86B;top=0;left=0;bottom=0;right=0;points=[[0,0.5],[1,0.5]];portConstraint=eastwest;" parent="4yESnbaFMz6oYUOKD-Xd-0" vertex="1">
          <mxGeometry y="330" width="180" height="30" as="geometry" />
        </mxCell>
        <mxCell id="4yESnbaFMz6oYUOKD-Xd-83" value="" style="shape=partialRectangle;connectable=0;fillColor=#CFC86B;top=0;left=0;bottom=0;right=0;editable=1;overflow=hidden;strokeColor=#b85450;" parent="4yESnbaFMz6oYUOKD-Xd-82" vertex="1">
          <mxGeometry width="30" height="30" as="geometry">
            <mxRectangle width="30" height="30" as="alternateBounds" />
          </mxGeometry>
        </mxCell>
        <mxCell id="4yESnbaFMz6oYUOKD-Xd-84" value="申请时间 " style="shape=partialRectangle;connectable=0;fillColor=#CFC86B;top=0;left=0;bottom=0;right=0;align=left;spacingLeft=6;overflow=hidden;strokeColor=#b85450;" parent="4yESnbaFMz6oYUOKD-Xd-82" vertex="1">
          <mxGeometry x="30" width="150" height="30" as="geometry">
            <mxRectangle width="150" height="30" as="alternateBounds" />
          </mxGeometry>
        </mxCell>
        <mxCell id="ps1g9BAuPv7IC5qq62IZ-1" style="edgeStyle=orthogonalEdgeStyle;rounded=0;orthogonalLoop=1;jettySize=auto;html=1;entryX=0;entryY=0.5;entryDx=0;entryDy=0;startArrow=none;startFill=0;endArrow=diamondThin;endFill=0;strokeWidth=1;startSize=10;endSize=15;" parent="aG2DRF024pispLoMt5vq-1" source="4yESnbaFMz6oYUOKD-Xd-146" target="4yESnbaFMz6oYUOKD-Xd-25" edge="1">
          <mxGeometry relative="1" as="geometry">
            <Array as="points">
              <mxPoint x="520" y="-525" />
              <mxPoint x="520" y="-485" />
            </Array>
          </mxGeometry>
        </mxCell>
        <mxCell id="ps1g9BAuPv7IC5qq62IZ-4" value="1" style="edgeLabel;html=1;align=center;verticalAlign=middle;resizable=0;points=[];" parent="ps1g9BAuPv7IC5qq62IZ-1" vertex="1" connectable="0">
          <mxGeometry x="-0.7882" y="2" relative="1" as="geometry">
            <mxPoint x="-5" y="-13" as="offset" />
          </mxGeometry>
        </mxCell>
        <mxCell id="ps1g9BAuPv7IC5qq62IZ-5" value="n" style="edgeLabel;html=1;align=center;verticalAlign=middle;resizable=0;points=[];" parent="ps1g9BAuPv7IC5qq62IZ-1" vertex="1" connectable="0">
          <mxGeometry x="0.5026" y="-2" relative="1" as="geometry">
            <mxPoint x="15" y="-17" as="offset" />
          </mxGeometry>
        </mxCell>
        <mxCell id="4yESnbaFMz6oYUOKD-Xd-146" value="FTR案件" style="shape=table;startSize=30;container=1;collapsible=1;childLayout=tableLayout;fixedRows=1;rowLines=0;fontStyle=1;align=center;resizeLast=1;fillColor=#F9CB70;strokeColor=#1A1A1A;" parent="aG2DRF024pispLoMt5vq-1" vertex="1">
          <mxGeometry x="290" y="-560" width="180" height="60" as="geometry" />
        </mxCell>
        <mxCell id="4yESnbaFMz6oYUOKD-Xd-147" value="" style="shape=partialRectangle;collapsible=0;dropTarget=0;pointerEvents=0;fillColor=#F9CB70;top=0;left=0;bottom=1;right=0;points=[[0,0.5],[1,0.5]];portConstraint=eastwest;" parent="4yESnbaFMz6oYUOKD-Xd-146" vertex="1">
          <mxGeometry y="30" width="180" height="30" as="geometry" />
        </mxCell>
        <mxCell id="4yESnbaFMz6oYUOKD-Xd-148" value="PK" style="shape=partialRectangle;connectable=0;fillColor=#F9CB70;top=0;left=0;bottom=0;right=0;fontStyle=1;overflow=hidden;strokeColor=#6c8ebf;" parent="4yESnbaFMz6oYUOKD-Xd-147" vertex="1">
          <mxGeometry width="30" height="30" as="geometry">
            <mxRectangle width="30" height="30" as="alternateBounds" />
          </mxGeometry>
        </mxCell>
        <mxCell id="4yESnbaFMz6oYUOKD-Xd-149" value="id" style="shape=partialRectangle;connectable=0;fillColor=#F9CB70;top=0;left=0;bottom=0;right=0;align=left;spacingLeft=6;fontStyle=5;overflow=hidden;strokeColor=#6c8ebf;" parent="4yESnbaFMz6oYUOKD-Xd-147" vertex="1">
          <mxGeometry x="30" width="150" height="30" as="geometry">
            <mxRectangle width="150" height="30" as="alternateBounds" />
          </mxGeometry>
        </mxCell>
        <mxCell id="4yESnbaFMz6oYUOKD-Xd-154" value="案件记录" style="shape=table;startSize=30;container=1;collapsible=1;childLayout=tableLayout;fixedRows=1;rowLines=0;fontStyle=1;align=center;resizeLast=1;fillColor=#CFC86B;strokeColor=#1A1A1A;" parent="aG2DRF024pispLoMt5vq-1" vertex="1">
          <mxGeometry x="860" y="-540" width="180" height="150" as="geometry" />
        </mxCell>
        <mxCell id="4yESnbaFMz6oYUOKD-Xd-155" value="" style="shape=partialRectangle;collapsible=0;dropTarget=0;pointerEvents=0;fillColor=#CFC86B;top=0;left=0;bottom=1;right=0;points=[[0,0.5],[1,0.5]];portConstraint=eastwest;" parent="4yESnbaFMz6oYUOKD-Xd-154" vertex="1">
          <mxGeometry y="30" width="180" height="30" as="geometry" />
        </mxCell>
        <mxCell id="4yESnbaFMz6oYUOKD-Xd-156" value="PK" style="shape=partialRectangle;connectable=0;fillColor=#CFC86B;top=0;left=0;bottom=0;right=0;fontStyle=1;overflow=hidden;strokeColor=#6c8ebf;" parent="4yESnbaFMz6oYUOKD-Xd-155" vertex="1">
          <mxGeometry width="30" height="30" as="geometry">
            <mxRectangle width="30" height="30" as="alternateBounds" />
          </mxGeometry>
        </mxCell>
        <mxCell id="4yESnbaFMz6oYUOKD-Xd-157" value="id" style="shape=partialRectangle;connectable=0;fillColor=#CFC86B;top=0;left=0;bottom=0;right=0;align=left;spacingLeft=6;fontStyle=5;overflow=hidden;strokeColor=#6c8ebf;" parent="4yESnbaFMz6oYUOKD-Xd-155" vertex="1">
          <mxGeometry x="30" width="150" height="30" as="geometry">
            <mxRectangle width="150" height="30" as="alternateBounds" />
          </mxGeometry>
        </mxCell>
        <mxCell id="4yESnbaFMz6oYUOKD-Xd-158" value="" style="shape=partialRectangle;collapsible=0;dropTarget=0;pointerEvents=0;fillColor=#CFC86B;top=0;left=0;bottom=0;right=0;points=[[0,0.5],[1,0.5]];portConstraint=eastwest;" parent="4yESnbaFMz6oYUOKD-Xd-154" vertex="1">
          <mxGeometry y="60" width="180" height="30" as="geometry" />
        </mxCell>
        <mxCell id="4yESnbaFMz6oYUOKD-Xd-159" value="" style="shape=partialRectangle;connectable=0;fillColor=#CFC86B;top=0;left=0;bottom=0;right=0;editable=1;overflow=hidden;strokeColor=#6c8ebf;" parent="4yESnbaFMz6oYUOKD-Xd-158" vertex="1">
          <mxGeometry width="30" height="30" as="geometry">
            <mxRectangle width="30" height="30" as="alternateBounds" />
          </mxGeometry>
        </mxCell>
        <mxCell id="4yESnbaFMz6oYUOKD-Xd-160" value="案件码" style="shape=partialRectangle;connectable=0;fillColor=#CFC86B;top=0;left=0;bottom=0;right=0;align=left;spacingLeft=6;overflow=hidden;strokeColor=#6c8ebf;" parent="4yESnbaFMz6oYUOKD-Xd-158" vertex="1">
          <mxGeometry x="30" width="150" height="30" as="geometry">
            <mxRectangle width="150" height="30" as="alternateBounds" />
          </mxGeometry>
        </mxCell>
        <mxCell id="4yESnbaFMz6oYUOKD-Xd-161" value="" style="shape=partialRectangle;collapsible=0;dropTarget=0;pointerEvents=0;fillColor=#CFC86B;top=0;left=0;bottom=0;right=0;points=[[0,0.5],[1,0.5]];portConstraint=eastwest;" parent="4yESnbaFMz6oYUOKD-Xd-154" vertex="1">
          <mxGeometry y="90" width="180" height="30" as="geometry" />
        </mxCell>
        <mxCell id="4yESnbaFMz6oYUOKD-Xd-162" value="" style="shape=partialRectangle;connectable=0;fillColor=#CFC86B;top=0;left=0;bottom=0;right=0;editable=1;overflow=hidden;strokeColor=#6c8ebf;" parent="4yESnbaFMz6oYUOKD-Xd-161" vertex="1">
          <mxGeometry width="30" height="30" as="geometry">
            <mxRectangle width="30" height="30" as="alternateBounds" />
          </mxGeometry>
        </mxCell>
        <mxCell id="4yESnbaFMz6oYUOKD-Xd-163" value="操作人" style="shape=partialRectangle;connectable=0;fillColor=#CFC86B;top=0;left=0;bottom=0;right=0;align=left;spacingLeft=6;overflow=hidden;strokeColor=#6c8ebf;" parent="4yESnbaFMz6oYUOKD-Xd-161" vertex="1">
          <mxGeometry x="30" width="150" height="30" as="geometry">
            <mxRectangle width="150" height="30" as="alternateBounds" />
          </mxGeometry>
        </mxCell>
        <mxCell id="4yESnbaFMz6oYUOKD-Xd-164" value="" style="shape=partialRectangle;collapsible=0;dropTarget=0;pointerEvents=0;fillColor=#CFC86B;top=0;left=0;bottom=0;right=0;points=[[0,0.5],[1,0.5]];portConstraint=eastwest;" parent="4yESnbaFMz6oYUOKD-Xd-154" vertex="1">
          <mxGeometry y="120" width="180" height="30" as="geometry" />
        </mxCell>
        <mxCell id="4yESnbaFMz6oYUOKD-Xd-165" value="" style="shape=partialRectangle;connectable=0;fillColor=#CFC86B;top=0;left=0;bottom=0;right=0;editable=1;overflow=hidden;strokeColor=#6c8ebf;" parent="4yESnbaFMz6oYUOKD-Xd-164" vertex="1">
          <mxGeometry width="30" height="30" as="geometry">
            <mxRectangle width="30" height="30" as="alternateBounds" />
          </mxGeometry>
        </mxCell>
        <mxCell id="4yESnbaFMz6oYUOKD-Xd-166" value="操作内容" style="shape=partialRectangle;connectable=0;fillColor=#CFC86B;top=0;left=0;bottom=0;right=0;align=left;spacingLeft=6;overflow=hidden;strokeColor=#6c8ebf;" parent="4yESnbaFMz6oYUOKD-Xd-164" vertex="1">
          <mxGeometry x="30" width="150" height="30" as="geometry">
            <mxRectangle width="150" height="30" as="alternateBounds" />
          </mxGeometry>
        </mxCell>
        <mxCell id="4yESnbaFMz6oYUOKD-Xd-243" value="【共通】车辆表" style="shape=table;startSize=30;container=1;collapsible=1;childLayout=tableLayout;fixedRows=1;rowLines=0;fontStyle=1;align=center;resizeLast=1;fillColor=#FFFA9E;strokeColor=#1A1A1A;" parent="aG2DRF024pispLoMt5vq-1" vertex="1">
          <mxGeometry x="290" y="-330" width="180" height="60" as="geometry" />
        </mxCell>
        <mxCell id="4yESnbaFMz6oYUOKD-Xd-244" value="" style="shape=partialRectangle;collapsible=0;dropTarget=0;pointerEvents=0;fillColor=#FFFA9E;top=0;left=0;bottom=1;right=0;points=[[0,0.5],[1,0.5]];portConstraint=eastwest;" parent="4yESnbaFMz6oYUOKD-Xd-243" vertex="1">
          <mxGeometry y="30" width="180" height="30" as="geometry" />
        </mxCell>
        <mxCell id="4yESnbaFMz6oYUOKD-Xd-245" value="PK" style="shape=partialRectangle;connectable=0;fillColor=#FFFA9E;top=0;left=0;bottom=0;right=0;fontStyle=1;overflow=hidden;strokeColor=#6c8ebf;" parent="4yESnbaFMz6oYUOKD-Xd-244" vertex="1">
          <mxGeometry width="30" height="30" as="geometry">
            <mxRectangle width="30" height="30" as="alternateBounds" />
          </mxGeometry>
        </mxCell>
        <mxCell id="4yESnbaFMz6oYUOKD-Xd-246" value="id" style="shape=partialRectangle;connectable=0;fillColor=#FFFA9E;top=0;left=0;bottom=0;right=0;align=left;spacingLeft=6;fontStyle=5;overflow=hidden;strokeColor=#6c8ebf;" parent="4yESnbaFMz6oYUOKD-Xd-244" vertex="1">
          <mxGeometry x="30" width="150" height="30" as="geometry">
            <mxRectangle width="150" height="30" as="alternateBounds" />
          </mxGeometry>
        </mxCell>
        <mxCell id="4yESnbaFMz6oYUOKD-Xd-259" style="edgeStyle=entityRelationEdgeStyle;rounded=0;orthogonalLoop=1;jettySize=auto;html=1;startArrow=none;startFill=0;endArrow=none;endFill=0;elbow=vertical;startSize=10;endSize=15;strokeWidth=1;" parent="aG2DRF024pispLoMt5vq-1" target="4yESnbaFMz6oYUOKD-Xd-158" edge="1">
          <mxGeometry relative="1" as="geometry">
            <mxPoint x="780" y="-605" as="sourcePoint" />
          </mxGeometry>
        </mxCell>
        <mxCell id="7SmqNR03_EV_VpT_iq-0-0" value="【服务】工单" style="shape=table;startSize=30;container=1;collapsible=1;childLayout=tableLayout;fixedRows=1;rowLines=0;fontStyle=1;align=center;resizeLast=1;fillColor=#F9CB70;strokeColor=#1A1A1A;" parent="aG2DRF024pispLoMt5vq-1" vertex="1">
          <mxGeometry x="290" y="-450" width="180" height="60" as="geometry" />
        </mxCell>
        <mxCell id="7SmqNR03_EV_VpT_iq-0-1" value="" style="shape=tableRow;horizontal=0;startSize=0;swimlaneHead=0;swimlaneBody=0;fillColor=#F9CB70;collapsible=0;dropTarget=0;points=[[0,0.5],[1,0.5]];portConstraint=eastwest;top=0;left=0;right=0;bottom=1;" parent="7SmqNR03_EV_VpT_iq-0-0" vertex="1">
          <mxGeometry y="30" width="180" height="30" as="geometry" />
        </mxCell>
        <mxCell id="7SmqNR03_EV_VpT_iq-0-2" value="PK" style="shape=partialRectangle;connectable=0;fillColor=#F9CB70;top=0;left=0;bottom=0;right=0;fontStyle=1;overflow=hidden;" parent="7SmqNR03_EV_VpT_iq-0-1" vertex="1">
          <mxGeometry width="30" height="30" as="geometry">
            <mxRectangle width="30" height="30" as="alternateBounds" />
          </mxGeometry>
        </mxCell>
        <mxCell id="7SmqNR03_EV_VpT_iq-0-3" value="id" style="shape=partialRectangle;connectable=0;fillColor=#F9CB70;top=0;left=0;bottom=0;right=0;align=left;spacingLeft=6;fontStyle=5;overflow=hidden;" parent="7SmqNR03_EV_VpT_iq-0-1" vertex="1">
          <mxGeometry x="30" width="150" height="30" as="geometry">
            <mxRectangle width="150" height="30" as="alternateBounds" />
          </mxGeometry>
        </mxCell>
        <mxCell id="mJUNiAFvLqETq7SL5A6I-0" value="【共通】零部件" style="shape=table;startSize=30;container=1;collapsible=1;childLayout=tableLayout;fixedRows=1;rowLines=0;fontStyle=1;align=center;resizeLast=1;fillColor=#FFFA9E;strokeColor=#1A1A1A;" parent="aG2DRF024pispLoMt5vq-1" vertex="1">
          <mxGeometry x="290" y="-230" width="180" height="60" as="geometry" />
        </mxCell>
        <mxCell id="mJUNiAFvLqETq7SL5A6I-1" value="" style="shape=tableRow;horizontal=0;startSize=0;swimlaneHead=0;swimlaneBody=0;fillColor=#FFFA9E;collapsible=0;dropTarget=0;points=[[0,0.5],[1,0.5]];portConstraint=eastwest;top=0;left=0;right=0;bottom=1;" parent="mJUNiAFvLqETq7SL5A6I-0" vertex="1">
          <mxGeometry y="30" width="180" height="30" as="geometry" />
        </mxCell>
        <mxCell id="mJUNiAFvLqETq7SL5A6I-2" value="PK" style="shape=partialRectangle;connectable=0;fillColor=#FFFA9E;top=0;left=0;bottom=0;right=0;fontStyle=1;overflow=hidden;" parent="mJUNiAFvLqETq7SL5A6I-1" vertex="1">
          <mxGeometry width="30" height="30" as="geometry">
            <mxRectangle width="30" height="30" as="alternateBounds" />
          </mxGeometry>
        </mxCell>
        <mxCell id="mJUNiAFvLqETq7SL5A6I-3" value="id" style="shape=partialRectangle;connectable=0;fillColor=#FFFA9E;top=0;left=0;bottom=0;right=0;align=left;spacingLeft=6;fontStyle=5;overflow=hidden;" parent="mJUNiAFvLqETq7SL5A6I-1" vertex="1">
          <mxGeometry x="30" width="150" height="30" as="geometry">
            <mxRectangle width="150" height="30" as="alternateBounds" />
          </mxGeometry>
        </mxCell>
        <mxCell id="ZxGiSKHDTsfR3CuNod83-6" value="用户信息" style="shape=table;startSize=30;container=1;collapsible=1;childLayout=tableLayout;fixedRows=1;rowLines=0;fontStyle=1;align=center;resizeLast=1;fillColor=#FFFA9E;strokeColor=#1A1A1A;" parent="aG2DRF024pispLoMt5vq-1" vertex="1">
          <mxGeometry x="560" y="-280" width="180" height="60" as="geometry" />
        </mxCell>
        <mxCell id="ZxGiSKHDTsfR3CuNod83-7" value="" style="shape=tableRow;horizontal=0;startSize=0;swimlaneHead=0;swimlaneBody=0;fillColor=#FFFA9E;collapsible=0;dropTarget=0;points=[[0,0.5],[1,0.5]];portConstraint=eastwest;top=0;left=0;right=0;bottom=1;" parent="ZxGiSKHDTsfR3CuNod83-6" vertex="1">
          <mxGeometry y="30" width="180" height="30" as="geometry" />
        </mxCell>
        <mxCell id="ZxGiSKHDTsfR3CuNod83-8" value="PK" style="shape=partialRectangle;connectable=0;fillColor=#FFFA9E;top=0;left=0;bottom=0;right=0;fontStyle=1;overflow=hidden;" parent="ZxGiSKHDTsfR3CuNod83-7" vertex="1">
          <mxGeometry width="30" height="30" as="geometry">
            <mxRectangle width="30" height="30" as="alternateBounds" />
          </mxGeometry>
        </mxCell>
        <mxCell id="ZxGiSKHDTsfR3CuNod83-9" value="id" style="shape=partialRectangle;connectable=0;fillColor=#FFFA9E;top=0;left=0;bottom=0;right=0;align=left;spacingLeft=6;fontStyle=5;overflow=hidden;" parent="ZxGiSKHDTsfR3CuNod83-7" vertex="1">
          <mxGeometry x="30" width="150" height="30" as="geometry">
            <mxRectangle width="150" height="30" as="alternateBounds" />
          </mxGeometry>
        </mxCell>
        <mxCell id="4yESnbaFMz6oYUOKD-Xd-153" value="" style="edgeStyle=orthogonalEdgeStyle;fontSize=12;html=1;endArrow=diamondThin;startArrow=none;rounded=0;entryX=1;entryY=0.5;entryDx=0;entryDy=0;endFill=1;startFill=0;endSize=15;startSize=10;exitX=0;exitY=0.5;exitDx=0;exitDy=0;strokeColor=#1A1A1A;" parent="aG2DRF024pispLoMt5vq-1" target="4yESnbaFMz6oYUOKD-Xd-4" edge="1">
          <mxGeometry width="100" height="100" relative="1" as="geometry">
            <mxPoint x="860" y="-255" as="sourcePoint" />
            <mxPoint x="760" y="-570" as="targetPoint" />
            <Array as="points">
              <mxPoint x="780" y="-255" />
              <mxPoint x="780" y="-605" />
            </Array>
          </mxGeometry>
        </mxCell>
        <mxCell id="ps1g9BAuPv7IC5qq62IZ-2" value="1" style="edgeLabel;html=1;align=center;verticalAlign=middle;resizable=0;points=[];" parent="4yESnbaFMz6oYUOKD-Xd-153" vertex="1" connectable="0">
          <mxGeometry x="-0.8969" relative="1" as="geometry">
            <mxPoint x="-2" y="-15" as="offset" />
          </mxGeometry>
        </mxCell>
        <mxCell id="ps1g9BAuPv7IC5qq62IZ-7" value="1" style="text;html=1;align=center;verticalAlign=middle;resizable=0;points=[];autosize=1;strokeColor=none;fillColor=none;" parent="aG2DRF024pispLoMt5vq-1" vertex="1">
          <mxGeometry x="754" y="-624" width="20" height="20" as="geometry" />
        </mxCell>
        <mxCell id="ps1g9BAuPv7IC5qq62IZ-8" value="n" style="text;html=1;align=center;verticalAlign=middle;resizable=0;points=[];autosize=1;strokeColor=none;fillColor=none;" parent="aG2DRF024pispLoMt5vq-1" vertex="1">
          <mxGeometry x="840" y="-490" width="20" height="20" as="geometry" />
        </mxCell>
        <mxCell id="UnXrWjNLLbCc4kcwyXuo-15" value="现认案件反馈" style="shape=table;startSize=30;container=1;collapsible=1;childLayout=tableLayout;fixedRows=1;rowLines=0;fontStyle=1;align=center;resizeLast=1;fillColor=#CFC86B;strokeColor=#1A1A1A;" vertex="1" parent="aG2DRF024pispLoMt5vq-1">
          <mxGeometry x="860" y="-330" width="180" height="360" as="geometry" />
        </mxCell>
        <mxCell id="UnXrWjNLLbCc4kcwyXuo-16" value="" style="shape=partialRectangle;collapsible=0;dropTarget=0;pointerEvents=0;fillColor=#CFC86B;top=0;left=0;bottom=1;right=0;points=[[0,0.5],[1,0.5]];portConstraint=eastwest;" vertex="1" parent="UnXrWjNLLbCc4kcwyXuo-15">
          <mxGeometry y="30" width="180" height="30" as="geometry" />
        </mxCell>
        <mxCell id="UnXrWjNLLbCc4kcwyXuo-17" value="PK" style="shape=partialRectangle;connectable=0;fillColor=#CFC86B;top=0;left=0;bottom=0;right=0;fontStyle=1;overflow=hidden;strokeColor=#b85450;" vertex="1" parent="UnXrWjNLLbCc4kcwyXuo-16">
          <mxGeometry width="30" height="30" as="geometry">
            <mxRectangle width="30" height="30" as="alternateBounds" />
          </mxGeometry>
        </mxCell>
        <mxCell id="UnXrWjNLLbCc4kcwyXuo-18" value="id" style="shape=partialRectangle;connectable=0;fillColor=#CFC86B;top=0;left=0;bottom=0;right=0;align=left;spacingLeft=6;fontStyle=5;overflow=hidden;strokeColor=#b85450;" vertex="1" parent="UnXrWjNLLbCc4kcwyXuo-16">
          <mxGeometry x="30" width="150" height="30" as="geometry">
            <mxRectangle width="150" height="30" as="alternateBounds" />
          </mxGeometry>
        </mxCell>
        <mxCell id="UnXrWjNLLbCc4kcwyXuo-19" value="" style="shape=partialRectangle;collapsible=0;dropTarget=0;pointerEvents=0;fillColor=#CFC86B;top=0;left=0;bottom=0;right=0;points=[[0,0.5],[1,0.5]];portConstraint=eastwest;" vertex="1" parent="UnXrWjNLLbCc4kcwyXuo-15">
          <mxGeometry y="60" width="180" height="30" as="geometry" />
        </mxCell>
        <mxCell id="UnXrWjNLLbCc4kcwyXuo-20" value="" style="shape=partialRectangle;connectable=0;fillColor=#CFC86B;top=0;left=0;bottom=0;right=0;editable=1;overflow=hidden;strokeColor=#b85450;" vertex="1" parent="UnXrWjNLLbCc4kcwyXuo-19">
          <mxGeometry width="30" height="30" as="geometry">
            <mxRectangle width="30" height="30" as="alternateBounds" />
          </mxGeometry>
        </mxCell>
        <mxCell id="UnXrWjNLLbCc4kcwyXuo-21" value="案件码" style="shape=partialRectangle;connectable=0;fillColor=#CFC86B;top=0;left=0;bottom=0;right=0;align=left;spacingLeft=6;overflow=hidden;strokeColor=#b85450;" vertex="1" parent="UnXrWjNLLbCc4kcwyXuo-19">
          <mxGeometry x="30" width="150" height="30" as="geometry">
            <mxRectangle width="150" height="30" as="alternateBounds" />
          </mxGeometry>
        </mxCell>
        <mxCell id="UnXrWjNLLbCc4kcwyXuo-22" value="" style="shape=partialRectangle;collapsible=0;dropTarget=0;pointerEvents=0;fillColor=#CFC86B;top=0;left=0;bottom=0;right=0;points=[[0,0.5],[1,0.5]];portConstraint=eastwest;" vertex="1" parent="UnXrWjNLLbCc4kcwyXuo-15">
          <mxGeometry y="90" width="180" height="30" as="geometry" />
        </mxCell>
        <mxCell id="UnXrWjNLLbCc4kcwyXuo-23" value="" style="shape=partialRectangle;connectable=0;fillColor=#CFC86B;top=0;left=0;bottom=0;right=0;editable=1;overflow=hidden;strokeColor=#b85450;" vertex="1" parent="UnXrWjNLLbCc4kcwyXuo-22">
          <mxGeometry width="30" height="30" as="geometry">
            <mxRectangle width="30" height="30" as="alternateBounds" />
          </mxGeometry>
        </mxCell>
        <mxCell id="UnXrWjNLLbCc4kcwyXuo-24" value="案件名称" style="shape=partialRectangle;connectable=0;fillColor=#CFC86B;top=0;left=0;bottom=0;right=0;align=left;spacingLeft=6;overflow=hidden;strokeColor=#b85450;" vertex="1" parent="UnXrWjNLLbCc4kcwyXuo-22">
          <mxGeometry x="30" width="150" height="30" as="geometry">
            <mxRectangle width="150" height="30" as="alternateBounds" />
          </mxGeometry>
        </mxCell>
        <mxCell id="UnXrWjNLLbCc4kcwyXuo-25" value="" style="shape=partialRectangle;collapsible=0;dropTarget=0;pointerEvents=0;fillColor=#CFC86B;top=0;left=0;bottom=0;right=0;points=[[0,0.5],[1,0.5]];portConstraint=eastwest;" vertex="1" parent="UnXrWjNLLbCc4kcwyXuo-15">
          <mxGeometry y="120" width="180" height="30" as="geometry" />
        </mxCell>
        <mxCell id="UnXrWjNLLbCc4kcwyXuo-26" value="" style="shape=partialRectangle;connectable=0;fillColor=#CFC86B;top=0;left=0;bottom=0;right=0;editable=1;overflow=hidden;strokeColor=#b85450;" vertex="1" parent="UnXrWjNLLbCc4kcwyXuo-25">
          <mxGeometry width="30" height="30" as="geometry">
            <mxRectangle width="30" height="30" as="alternateBounds" />
          </mxGeometry>
        </mxCell>
        <mxCell id="UnXrWjNLLbCc4kcwyXuo-27" value="案件类型" style="shape=partialRectangle;connectable=0;fillColor=#CFC86B;top=0;left=0;bottom=0;right=0;align=left;spacingLeft=6;overflow=hidden;strokeColor=#b85450;" vertex="1" parent="UnXrWjNLLbCc4kcwyXuo-25">
          <mxGeometry x="30" width="150" height="30" as="geometry">
            <mxRectangle width="150" height="30" as="alternateBounds" />
          </mxGeometry>
        </mxCell>
        <mxCell id="UnXrWjNLLbCc4kcwyXuo-28" value="" style="shape=partialRectangle;collapsible=0;dropTarget=0;pointerEvents=0;fillColor=#CFC86B;top=0;left=0;bottom=0;right=0;points=[[0,0.5],[1,0.5]];portConstraint=eastwest;" vertex="1" parent="UnXrWjNLLbCc4kcwyXuo-15">
          <mxGeometry y="150" width="180" height="30" as="geometry" />
        </mxCell>
        <mxCell id="UnXrWjNLLbCc4kcwyXuo-29" value="" style="shape=partialRectangle;connectable=0;fillColor=#CFC86B;top=0;left=0;bottom=0;right=0;editable=1;overflow=hidden;strokeColor=#b85450;" vertex="1" parent="UnXrWjNLLbCc4kcwyXuo-28">
          <mxGeometry width="30" height="30" as="geometry">
            <mxRectangle width="30" height="30" as="alternateBounds" />
          </mxGeometry>
        </mxCell>
        <mxCell id="UnXrWjNLLbCc4kcwyXuo-30" value="案件状态" style="shape=partialRectangle;connectable=0;fillColor=#CFC86B;top=0;left=0;bottom=0;right=0;align=left;spacingLeft=6;overflow=hidden;strokeColor=#b85450;" vertex="1" parent="UnXrWjNLLbCc4kcwyXuo-28">
          <mxGeometry x="30" width="150" height="30" as="geometry">
            <mxRectangle width="150" height="30" as="alternateBounds" />
          </mxGeometry>
        </mxCell>
        <mxCell id="UnXrWjNLLbCc4kcwyXuo-31" value="" style="shape=partialRectangle;collapsible=0;dropTarget=0;pointerEvents=0;fillColor=#CFC86B;top=0;left=0;bottom=0;right=0;points=[[0,0.5],[1,0.5]];portConstraint=eastwest;" vertex="1" parent="UnXrWjNLLbCc4kcwyXuo-15">
          <mxGeometry y="180" width="180" height="30" as="geometry" />
        </mxCell>
        <mxCell id="UnXrWjNLLbCc4kcwyXuo-32" value="" style="shape=partialRectangle;connectable=0;fillColor=#CFC86B;top=0;left=0;bottom=0;right=0;editable=1;overflow=hidden;strokeColor=#b85450;" vertex="1" parent="UnXrWjNLLbCc4kcwyXuo-31">
          <mxGeometry width="30" height="30" as="geometry">
            <mxRectangle width="30" height="30" as="alternateBounds" />
          </mxGeometry>
        </mxCell>
        <mxCell id="UnXrWjNLLbCc4kcwyXuo-33" value="FTR" style="shape=partialRectangle;connectable=0;fillColor=#CFC86B;top=0;left=0;bottom=0;right=0;align=left;spacingLeft=6;overflow=hidden;strokeColor=#b85450;" vertex="1" parent="UnXrWjNLLbCc4kcwyXuo-31">
          <mxGeometry x="30" width="150" height="30" as="geometry">
            <mxRectangle width="150" height="30" as="alternateBounds" />
          </mxGeometry>
        </mxCell>
        <mxCell id="UnXrWjNLLbCc4kcwyXuo-34" value="" style="shape=partialRectangle;collapsible=0;dropTarget=0;pointerEvents=0;fillColor=#CFC86B;top=0;left=0;bottom=0;right=0;points=[[0,0.5],[1,0.5]];portConstraint=eastwest;" vertex="1" parent="UnXrWjNLLbCc4kcwyXuo-15">
          <mxGeometry y="210" width="180" height="30" as="geometry" />
        </mxCell>
        <mxCell id="UnXrWjNLLbCc4kcwyXuo-35" value="" style="shape=partialRectangle;connectable=0;fillColor=#CFC86B;top=0;left=0;bottom=0;right=0;editable=1;overflow=hidden;strokeColor=#b85450;" vertex="1" parent="UnXrWjNLLbCc4kcwyXuo-34">
          <mxGeometry width="30" height="30" as="geometry">
            <mxRectangle width="30" height="30" as="alternateBounds" />
          </mxGeometry>
        </mxCell>
        <mxCell id="UnXrWjNLLbCc4kcwyXuo-36" value="零件" style="shape=partialRectangle;connectable=0;fillColor=#CFC86B;top=0;left=0;bottom=0;right=0;align=left;spacingLeft=6;overflow=hidden;strokeColor=#b85450;" vertex="1" parent="UnXrWjNLLbCc4kcwyXuo-34">
          <mxGeometry x="30" width="150" height="30" as="geometry">
            <mxRectangle width="150" height="30" as="alternateBounds" />
          </mxGeometry>
        </mxCell>
        <mxCell id="UnXrWjNLLbCc4kcwyXuo-37" value="" style="shape=partialRectangle;collapsible=0;dropTarget=0;pointerEvents=0;fillColor=#CFC86B;top=0;left=0;bottom=0;right=0;points=[[0,0.5],[1,0.5]];portConstraint=eastwest;" vertex="1" parent="UnXrWjNLLbCc4kcwyXuo-15">
          <mxGeometry y="240" width="180" height="30" as="geometry" />
        </mxCell>
        <mxCell id="UnXrWjNLLbCc4kcwyXuo-38" value="" style="shape=partialRectangle;connectable=0;fillColor=#CFC86B;top=0;left=0;bottom=0;right=0;editable=1;overflow=hidden;strokeColor=#b85450;" vertex="1" parent="UnXrWjNLLbCc4kcwyXuo-37">
          <mxGeometry width="30" height="30" as="geometry">
            <mxRectangle width="30" height="30" as="alternateBounds" />
          </mxGeometry>
        </mxCell>
        <mxCell id="UnXrWjNLLbCc4kcwyXuo-39" value="工单" style="shape=partialRectangle;connectable=0;fillColor=#CFC86B;top=0;left=0;bottom=0;right=0;align=left;spacingLeft=6;overflow=hidden;strokeColor=#b85450;" vertex="1" parent="UnXrWjNLLbCc4kcwyXuo-37">
          <mxGeometry x="30" width="150" height="30" as="geometry">
            <mxRectangle width="150" height="30" as="alternateBounds" />
          </mxGeometry>
        </mxCell>
        <mxCell id="UnXrWjNLLbCc4kcwyXuo-40" value="" style="shape=partialRectangle;collapsible=0;dropTarget=0;pointerEvents=0;fillColor=#CFC86B;top=0;left=0;bottom=0;right=0;points=[[0,0.5],[1,0.5]];portConstraint=eastwest;" vertex="1" parent="UnXrWjNLLbCc4kcwyXuo-15">
          <mxGeometry y="270" width="180" height="30" as="geometry" />
        </mxCell>
        <mxCell id="UnXrWjNLLbCc4kcwyXuo-41" value="" style="shape=partialRectangle;connectable=0;fillColor=#CFC86B;top=0;left=0;bottom=0;right=0;editable=1;overflow=hidden;strokeColor=#b85450;" vertex="1" parent="UnXrWjNLLbCc4kcwyXuo-40">
          <mxGeometry width="30" height="30" as="geometry">
            <mxRectangle width="30" height="30" as="alternateBounds" />
          </mxGeometry>
        </mxCell>
        <mxCell id="UnXrWjNLLbCc4kcwyXuo-42" value="填表人" style="shape=partialRectangle;connectable=0;fillColor=#CFC86B;top=0;left=0;bottom=0;right=0;align=left;spacingLeft=6;overflow=hidden;strokeColor=#b85450;" vertex="1" parent="UnXrWjNLLbCc4kcwyXuo-40">
          <mxGeometry x="30" width="150" height="30" as="geometry">
            <mxRectangle width="150" height="30" as="alternateBounds" />
          </mxGeometry>
        </mxCell>
        <mxCell id="UnXrWjNLLbCc4kcwyXuo-43" value="" style="shape=partialRectangle;collapsible=0;dropTarget=0;pointerEvents=0;fillColor=#CFC86B;top=0;left=0;bottom=0;right=0;points=[[0,0.5],[1,0.5]];portConstraint=eastwest;" vertex="1" parent="UnXrWjNLLbCc4kcwyXuo-15">
          <mxGeometry y="300" width="180" height="30" as="geometry" />
        </mxCell>
        <mxCell id="UnXrWjNLLbCc4kcwyXuo-44" value="" style="shape=partialRectangle;connectable=0;fillColor=#CFC86B;top=0;left=0;bottom=0;right=0;editable=1;overflow=hidden;strokeColor=#b85450;" vertex="1" parent="UnXrWjNLLbCc4kcwyXuo-43">
          <mxGeometry width="30" height="30" as="geometry">
            <mxRectangle width="30" height="30" as="alternateBounds" />
          </mxGeometry>
        </mxCell>
        <mxCell id="UnXrWjNLLbCc4kcwyXuo-45" value="车型" style="shape=partialRectangle;connectable=0;fillColor=#CFC86B;top=0;left=0;bottom=0;right=0;align=left;spacingLeft=6;overflow=hidden;strokeColor=#b85450;" vertex="1" parent="UnXrWjNLLbCc4kcwyXuo-43">
          <mxGeometry x="30" width="150" height="30" as="geometry">
            <mxRectangle width="150" height="30" as="alternateBounds" />
          </mxGeometry>
        </mxCell>
        <mxCell id="UnXrWjNLLbCc4kcwyXuo-46" value="" style="shape=partialRectangle;collapsible=0;dropTarget=0;pointerEvents=0;fillColor=#CFC86B;top=0;left=0;bottom=0;right=0;points=[[0,0.5],[1,0.5]];portConstraint=eastwest;" vertex="1" parent="UnXrWjNLLbCc4kcwyXuo-15">
          <mxGeometry y="330" width="180" height="30" as="geometry" />
        </mxCell>
        <mxCell id="UnXrWjNLLbCc4kcwyXuo-47" value="" style="shape=partialRectangle;connectable=0;fillColor=#CFC86B;top=0;left=0;bottom=0;right=0;editable=1;overflow=hidden;strokeColor=#b85450;" vertex="1" parent="UnXrWjNLLbCc4kcwyXuo-46">
          <mxGeometry width="30" height="30" as="geometry">
            <mxRectangle width="30" height="30" as="alternateBounds" />
          </mxGeometry>
        </mxCell>
        <mxCell id="UnXrWjNLLbCc4kcwyXuo-48" value="申请时间 " style="shape=partialRectangle;connectable=0;fillColor=#CFC86B;top=0;left=0;bottom=0;right=0;align=left;spacingLeft=6;overflow=hidden;strokeColor=#b85450;" vertex="1" parent="UnXrWjNLLbCc4kcwyXuo-46">
          <mxGeometry x="30" width="150" height="30" as="geometry">
            <mxRectangle width="150" height="30" as="alternateBounds" />
          </mxGeometry>
        </mxCell>
      </root>
    </mxGraphModel>
  </diagram>
  <diagram name="现任案件审核行为设计" id="Evo04nqcK7r_nfiaihtM">
    <mxGraphModel dx="1806" dy="955" grid="1" gridSize="10" guides="1" tooltips="1" connect="1" arrows="1" fold="1" page="1" pageScale="1" pageWidth="827" pageHeight="1169" math="0" shadow="0">
      <root>
        <mxCell id="HDJfTjg50idI8V0hbOPg-0" />
        <mxCell id="HDJfTjg50idI8V0hbOPg-1" parent="HDJfTjg50idI8V0hbOPg-0" />
        <mxCell id="E78P347KVN_5kgIJroZ4-0" value="接口-BFF服务" style="shape=umlLifeline;perimeter=lifelinePerimeter;whiteSpace=wrap;html=1;container=1;collapsible=0;recursiveResize=0;outlineConnect=0;" parent="HDJfTjg50idI8V0hbOPg-1" vertex="1">
          <mxGeometry x="220" y="880" width="100" height="440" as="geometry" />
        </mxCell>
        <mxCell id="E78P347KVN_5kgIJroZ4-1" value="" style="html=1;points=[];perimeter=orthogonalPerimeter;" parent="E78P347KVN_5kgIJroZ4-0" vertex="1">
          <mxGeometry x="45" y="100" width="10" height="290" as="geometry" />
        </mxCell>
        <mxCell id="E78P347KVN_5kgIJroZ4-2" value="1.现认案件评审()" style="html=1;verticalAlign=bottom;endArrow=block;rounded=0;" parent="E78P347KVN_5kgIJroZ4-0" source="E78P347KVN_5kgIJroZ4-12" edge="1">
          <mxGeometry width="80" relative="1" as="geometry">
            <mxPoint x="-35" y="100" as="sourcePoint" />
            <mxPoint x="45" y="100" as="targetPoint" />
          </mxGeometry>
        </mxCell>
        <mxCell id="E78P347KVN_5kgIJroZ4-3" value="" style="html=1;verticalAlign=bottom;endArrow=open;dashed=1;endSize=8;rounded=0;curved=1;" parent="E78P347KVN_5kgIJroZ4-0" edge="1">
          <mxGeometry relative="1" as="geometry">
            <mxPoint x="50" y="390" as="sourcePoint" />
            <mxPoint x="-145.33333333333326" y="390" as="targetPoint" />
          </mxGeometry>
        </mxCell>
        <mxCell id="E78P347KVN_5kgIJroZ4-4" value="领域层-质量反馈跟踪原子服务" style="shape=umlLifeline;perimeter=lifelinePerimeter;whiteSpace=wrap;html=1;container=1;collapsible=0;recursiveResize=0;outlineConnect=0;" parent="HDJfTjg50idI8V0hbOPg-1" vertex="1">
          <mxGeometry x="590" y="880" width="130" height="440" as="geometry" />
        </mxCell>
        <mxCell id="E78P347KVN_5kgIJroZ4-5" value="" style="html=1;points=[];perimeter=orthogonalPerimeter;" parent="E78P347KVN_5kgIJroZ4-4" vertex="1">
          <mxGeometry x="60" y="230" width="10" height="120" as="geometry" />
        </mxCell>
        <mxCell id="E78P347KVN_5kgIJroZ4-6" value="" style="html=1;points=[];perimeter=orthogonalPerimeter;" parent="E78P347KVN_5kgIJroZ4-4" vertex="1">
          <mxGeometry x="70" y="289" width="10" height="40" as="geometry" />
        </mxCell>
        <mxCell id="E78P347KVN_5kgIJroZ4-7" value="" style="edgeStyle=orthogonalEdgeStyle;html=1;align=left;spacingLeft=2;endArrow=block;rounded=0;entryX=1;entryY=0;" parent="E78P347KVN_5kgIJroZ4-4" source="E78P347KVN_5kgIJroZ4-5" target="E78P347KVN_5kgIJroZ4-6" edge="1">
          <mxGeometry relative="1" as="geometry">
            <mxPoint x="75" y="260" as="sourcePoint" />
            <Array as="points">
              <mxPoint x="105" y="270" />
              <mxPoint x="105" y="289" />
            </Array>
          </mxGeometry>
        </mxCell>
        <mxCell id="E78P347KVN_5kgIJroZ4-8" value="" style="html=1;verticalAlign=bottom;endArrow=open;dashed=1;endSize=8;rounded=0;curved=1;" parent="E78P347KVN_5kgIJroZ4-4" edge="1">
          <mxGeometry relative="1" as="geometry">
            <mxPoint x="64" y="350" as="sourcePoint" />
            <mxPoint x="-125.33333333333326" y="350" as="targetPoint" />
          </mxGeometry>
        </mxCell>
        <mxCell id="E78P347KVN_5kgIJroZ4-9" value="1.1.2.现认案件.评审()" style="html=1;verticalAlign=bottom;endArrow=block;rounded=0;" parent="E78P347KVN_5kgIJroZ4-4" edge="1">
          <mxGeometry width="80" relative="1" as="geometry">
            <mxPoint x="-126" y="229" as="sourcePoint" />
            <mxPoint x="60" y="230" as="targetPoint" />
          </mxGeometry>
        </mxCell>
        <mxCell id="E78P347KVN_5kgIJroZ4-10" value="1.1.2.2 消息通知 发送邮件命令&lt;br&gt;事件总线，发送邮箱()" style="html=1;verticalAlign=bottom;endArrow=block;rounded=0;" parent="E78P347KVN_5kgIJroZ4-4" edge="1">
          <mxGeometry width="80" relative="1" as="geometry">
            <mxPoint x="70" y="339" as="sourcePoint" />
            <mxPoint x="309.5" y="339" as="targetPoint" />
          </mxGeometry>
        </mxCell>
        <mxCell id="E78P347KVN_5kgIJroZ4-11" value="技术支持前端" style="shape=umlLifeline;perimeter=lifelinePerimeter;whiteSpace=wrap;html=1;container=1;collapsible=0;recursiveResize=0;outlineConnect=0;" parent="HDJfTjg50idI8V0hbOPg-1" vertex="1">
          <mxGeometry x="20" y="880" width="100" height="440" as="geometry" />
        </mxCell>
        <mxCell id="E78P347KVN_5kgIJroZ4-12" value="" style="html=1;points=[];perimeter=orthogonalPerimeter;" parent="E78P347KVN_5kgIJroZ4-11" vertex="1">
          <mxGeometry x="45" y="100" width="10" height="310" as="geometry" />
        </mxCell>
        <mxCell id="E78P347KVN_5kgIJroZ4-13" value="应用层-技术支持聚合服务" style="shape=umlLifeline;perimeter=lifelinePerimeter;whiteSpace=wrap;html=1;container=1;collapsible=0;recursiveResize=0;outlineConnect=0;" parent="HDJfTjg50idI8V0hbOPg-1" vertex="1">
          <mxGeometry x="410" y="880" width="100" height="440" as="geometry" />
        </mxCell>
        <mxCell id="E78P347KVN_5kgIJroZ4-14" value="" style="html=1;points=[];perimeter=orthogonalPerimeter;" parent="E78P347KVN_5kgIJroZ4-13" vertex="1">
          <mxGeometry x="45" y="190" width="10" height="180" as="geometry" />
        </mxCell>
        <mxCell id="E78P347KVN_5kgIJroZ4-15" value="1.2调用现认案件聚合&lt;br&gt;现认案件评审()" style="html=1;verticalAlign=bottom;endArrow=block;rounded=0;" parent="E78P347KVN_5kgIJroZ4-13" edge="1">
          <mxGeometry width="80" relative="1" as="geometry">
            <mxPoint x="-135.33333333333326" y="189" as="sourcePoint" />
            <mxPoint x="50" y="189" as="targetPoint" />
          </mxGeometry>
        </mxCell>
        <mxCell id="E78P347KVN_5kgIJroZ4-16" value="" style="html=1;verticalAlign=bottom;endArrow=open;dashed=1;endSize=8;rounded=0;curved=1;" parent="E78P347KVN_5kgIJroZ4-13" edge="1">
          <mxGeometry relative="1" as="geometry">
            <mxPoint x="49" y="370" as="sourcePoint" />
            <mxPoint x="-135.33333333333326" y="370" as="targetPoint" />
          </mxGeometry>
        </mxCell>
        <mxCell id="E78P347KVN_5kgIJroZ4-17" value="" style="html=1;points=[];perimeter=orthogonalPerimeter;fillColor=none;" parent="E78P347KVN_5kgIJroZ4-13" vertex="1">
          <mxGeometry x="-135" y="127" width="10" height="40" as="geometry" />
        </mxCell>
        <mxCell id="E78P347KVN_5kgIJroZ4-19" value="&lt;span style=&quot;font-size: 11px ; text-align: left ; background-color: rgb(255 , 255 , 255)&quot;&gt;1.1.2.1案件更新为已完结()&lt;/span&gt;" style="text;html=1;align=center;verticalAlign=middle;resizable=0;points=[];autosize=1;strokeColor=none;fillColor=none;" parent="HDJfTjg50idI8V0hbOPg-1" vertex="1">
          <mxGeometry x="690" y="1149" width="160" height="20" as="geometry" />
        </mxCell>
        <mxCell id="E78P347KVN_5kgIJroZ4-20" value="MQ消息服务" style="shape=umlLifeline;perimeter=lifelinePerimeter;whiteSpace=wrap;html=1;container=1;collapsible=0;recursiveResize=0;outlineConnect=0;fillColor=none;" parent="HDJfTjg50idI8V0hbOPg-1" vertex="1">
          <mxGeometry x="850" y="880" width="100" height="440" as="geometry" />
        </mxCell>
        <mxCell id="E78P347KVN_5kgIJroZ4-21" value="" style="html=1;points=[];perimeter=orthogonalPerimeter;fillColor=default;" parent="E78P347KVN_5kgIJroZ4-20" vertex="1">
          <mxGeometry x="45" y="340" width="10" height="80" as="geometry" />
        </mxCell>
        <mxCell id="19x3FxLhHZGvJ7nhKq47-0" value="只发送现认案件状态" style="shape=note;size=20;whiteSpace=wrap;html=1;fillColor=#FFCBCF;strokeColor=#d79b00;" parent="HDJfTjg50idI8V0hbOPg-1" vertex="1">
          <mxGeometry x="700" y="1230" width="181" height="20" as="geometry" />
        </mxCell>
        <mxCell id="EHqenhMaM5ZKLH0i4Dxz-0" value="现认案件审评行为" style="shape=umlFrame;whiteSpace=wrap;html=1;width=160;height=30;" parent="HDJfTjg50idI8V0hbOPg-1" vertex="1">
          <mxGeometry x="10" y="840" width="1090" height="490" as="geometry" />
        </mxCell>
        <mxCell id="E78P347KVN_5kgIJroZ4-18" value="1.1 参数合规性校验()" style="edgeStyle=orthogonalEdgeStyle;html=1;align=left;spacingLeft=2;endArrow=block;rounded=0;entryX=1;entryY=0;exitX=1.005;exitY=0.026;exitDx=0;exitDy=0;exitPerimeter=0;" parent="HDJfTjg50idI8V0hbOPg-1" source="E78P347KVN_5kgIJroZ4-1" target="E78P347KVN_5kgIJroZ4-17" edge="1">
          <mxGeometry relative="1" as="geometry">
            <mxPoint x="280" y="987" as="sourcePoint" />
            <Array as="points">
              <mxPoint x="310" y="987" />
              <mxPoint x="310" y="1007" />
            </Array>
          </mxGeometry>
        </mxCell>
        <mxCell id="R-CPZUQhIvLLH41JH3i3-0" value="公共邮箱" style="shape=umlLifeline;perimeter=lifelinePerimeter;whiteSpace=wrap;html=1;container=1;collapsible=0;recursiveResize=0;outlineConnect=0;fillColor=none;" parent="HDJfTjg50idI8V0hbOPg-1" vertex="1">
          <mxGeometry x="990" y="880" width="100" height="440" as="geometry" />
        </mxCell>
        <mxCell id="R-CPZUQhIvLLH41JH3i3-1" value="" style="html=1;points=[];perimeter=orthogonalPerimeter;fillColor=default;" parent="R-CPZUQhIvLLH41JH3i3-0" vertex="1">
          <mxGeometry x="45" y="350" width="10" height="60" as="geometry" />
        </mxCell>
        <mxCell id="R-CPZUQhIvLLH41JH3i3-2" value="1.1.2.2.1&amp;nbsp; 事件通知&lt;br&gt;发送邮箱()" style="html=1;verticalAlign=bottom;endArrow=block;rounded=0;exitX=0.96;exitY=0.108;exitDx=0;exitDy=0;exitPerimeter=0;" parent="HDJfTjg50idI8V0hbOPg-1" source="E78P347KVN_5kgIJroZ4-21" edge="1">
          <mxGeometry width="80" relative="1" as="geometry">
            <mxPoint x="910" y="1229" as="sourcePoint" />
            <mxPoint x="1039.5" y="1229" as="targetPoint" />
          </mxGeometry>
        </mxCell>
      </root>
    </mxGraphModel>
  </diagram>
  <diagram name="现任案件创建行为设计" id="N3UDCrSWSf5MyAKfjSo2">
    <mxGraphModel dx="1204" dy="637" grid="1" gridSize="10" guides="1" tooltips="1" connect="1" arrows="1" fold="1" page="1" pageScale="1" pageWidth="827" pageHeight="1169" math="0" shadow="0">
      <root>
        <mxCell id="2AUEPorlyujOiO6pKWKE-0" />
        <mxCell id="2AUEPorlyujOiO6pKWKE-1" parent="2AUEPorlyujOiO6pKWKE-0" />
        <mxCell id="u2G3QsqNVSCs0AIml4cM-0" value="接口-BFF服务" style="shape=umlLifeline;perimeter=lifelinePerimeter;whiteSpace=wrap;html=1;container=1;collapsible=0;recursiveResize=0;outlineConnect=0;" parent="2AUEPorlyujOiO6pKWKE-1" vertex="1">
          <mxGeometry x="270" y="110" width="100" height="920" as="geometry" />
        </mxCell>
        <mxCell id="u2G3QsqNVSCs0AIml4cM-1" value="" style="html=1;points=[];perimeter=orthogonalPerimeter;" parent="u2G3QsqNVSCs0AIml4cM-0" vertex="1">
          <mxGeometry x="45" y="91" width="10" height="379" as="geometry" />
        </mxCell>
        <mxCell id="u2G3QsqNVSCs0AIml4cM-4" value="领域层-质量反馈跟踪原子服务" style="shape=umlLifeline;perimeter=lifelinePerimeter;whiteSpace=wrap;html=1;container=1;collapsible=0;recursiveResize=0;outlineConnect=0;" parent="2AUEPorlyujOiO6pKWKE-1" vertex="1">
          <mxGeometry x="640" y="110" width="140" height="920" as="geometry" />
        </mxCell>
        <mxCell id="u2G3QsqNVSCs0AIml4cM-5" value="" style="html=1;points=[];perimeter=orthogonalPerimeter;" parent="u2G3QsqNVSCs0AIml4cM-4" vertex="1">
          <mxGeometry x="65" y="330" width="10" height="80" as="geometry" />
        </mxCell>
        <mxCell id="u2G3QsqNVSCs0AIml4cM-6" value="" style="edgeStyle=orthogonalEdgeStyle;html=1;align=left;spacingLeft=2;endArrow=block;rounded=0;entryX=1;entryY=0;exitX=1;exitY=0.615;exitDx=0;exitDy=0;exitPerimeter=0;" parent="u2G3QsqNVSCs0AIml4cM-4" edge="1">
          <mxGeometry relative="1" as="geometry">
            <mxPoint x="75" y="343.70000000000005" as="sourcePoint" />
            <Array as="points">
              <mxPoint x="110" y="344" />
              <mxPoint x="110" y="363" />
            </Array>
            <mxPoint x="85" y="363" as="targetPoint" />
          </mxGeometry>
        </mxCell>
        <mxCell id="u2G3QsqNVSCs0AIml4cM-7" value="" style="html=1;points=[];perimeter=orthogonalPerimeter;" parent="u2G3QsqNVSCs0AIml4cM-4" vertex="1">
          <mxGeometry x="75" y="363" width="10" height="40" as="geometry" />
        </mxCell>
        <mxCell id="u2G3QsqNVSCs0AIml4cM-8" value="1.2.2 新增现认案件()" style="html=1;verticalAlign=bottom;endArrow=block;rounded=0;" parent="u2G3QsqNVSCs0AIml4cM-4" edge="1">
          <mxGeometry width="80" relative="1" as="geometry">
            <mxPoint x="-124" y="331" as="sourcePoint" />
            <mxPoint x="66" y="331" as="targetPoint" />
          </mxGeometry>
        </mxCell>
        <mxCell id="u2G3QsqNVSCs0AIml4cM-9" value="技术支持前端" style="shape=umlLifeline;perimeter=lifelinePerimeter;whiteSpace=wrap;html=1;container=1;collapsible=0;recursiveResize=0;outlineConnect=0;" parent="2AUEPorlyujOiO6pKWKE-1" vertex="1">
          <mxGeometry x="70" y="110" width="100" height="920" as="geometry" />
        </mxCell>
        <mxCell id="u2G3QsqNVSCs0AIml4cM-10" value="" style="html=1;points=[];perimeter=orthogonalPerimeter;" parent="u2G3QsqNVSCs0AIml4cM-9" vertex="1">
          <mxGeometry x="45" y="91" width="10" height="389" as="geometry" />
        </mxCell>
        <mxCell id="u2G3QsqNVSCs0AIml4cM-11" value="应用层-现认案件聚合服务" style="shape=umlLifeline;perimeter=lifelinePerimeter;whiteSpace=wrap;html=1;container=1;collapsible=0;recursiveResize=0;outlineConnect=0;" parent="2AUEPorlyujOiO6pKWKE-1" vertex="1">
          <mxGeometry x="460" y="110" width="100" height="920" as="geometry" />
        </mxCell>
        <mxCell id="u2G3QsqNVSCs0AIml4cM-12" value="" style="html=1;points=[];perimeter=orthogonalPerimeter;" parent="u2G3QsqNVSCs0AIml4cM-11" vertex="1">
          <mxGeometry x="45" y="201" width="10" height="239" as="geometry" />
        </mxCell>
        <mxCell id="u2G3QsqNVSCs0AIml4cM-13" value="1.2 新增现认案件()" style="html=1;verticalAlign=bottom;endArrow=block;rounded=0;" parent="u2G3QsqNVSCs0AIml4cM-11" edge="1">
          <mxGeometry width="80" relative="1" as="geometry">
            <mxPoint x="-135" y="201" as="sourcePoint" />
            <mxPoint x="45" y="201" as="targetPoint" />
          </mxGeometry>
        </mxCell>
        <mxCell id="u2G3QsqNVSCs0AIml4cM-14" value="" style="html=1;verticalAlign=bottom;endArrow=open;dashed=1;endSize=8;rounded=0;curved=1;" parent="u2G3QsqNVSCs0AIml4cM-11" edge="1">
          <mxGeometry relative="1" as="geometry">
            <mxPoint x="51" y="440" as="sourcePoint" />
            <mxPoint x="-134" y="440" as="targetPoint" />
          </mxGeometry>
        </mxCell>
        <mxCell id="u2G3QsqNVSCs0AIml4cM-15" value="" style="html=1;points=[];perimeter=orthogonalPerimeter;fillColor=default;" parent="u2G3QsqNVSCs0AIml4cM-11" vertex="1">
          <mxGeometry x="-135" y="129" width="10" height="40" as="geometry" />
        </mxCell>
        <mxCell id="u2G3QsqNVSCs0AIml4cM-16" value="1.1 页面参数校验()" style="edgeStyle=orthogonalEdgeStyle;html=1;align=left;spacingLeft=2;endArrow=block;rounded=0;entryX=1;entryY=0;" parent="u2G3QsqNVSCs0AIml4cM-11" target="u2G3QsqNVSCs0AIml4cM-15" edge="1">
          <mxGeometry relative="1" as="geometry">
            <mxPoint x="-135" y="109" as="sourcePoint" />
            <Array as="points">
              <mxPoint x="-100" y="109" />
              <mxPoint x="-100" y="129" />
            </Array>
          </mxGeometry>
        </mxCell>
        <mxCell id="u2G3QsqNVSCs0AIml4cM-17" value="1.2.2.1 保存现认案件.待提交()&lt;br&gt;持久化" style="text;html=1;align=center;verticalAlign=middle;resizable=0;points=[];autosize=1;strokeColor=none;fillColor=none;" parent="2AUEPorlyujOiO6pKWKE-1" vertex="1">
          <mxGeometry x="743" y="450" width="180" height="30" as="geometry" />
        </mxCell>
        <mxCell id="u2G3QsqNVSCs0AIml4cM-18" value="" style="html=1;verticalAlign=bottom;endArrow=open;dashed=1;endSize=8;rounded=0;curved=1;entryX=0.967;entryY=0.955;entryDx=0;entryDy=0;entryPerimeter=0;exitX=0.1;exitY=0.989;exitDx=0;exitDy=0;exitPerimeter=0;" parent="2AUEPorlyujOiO6pKWKE-1" edge="1">
          <mxGeometry relative="1" as="geometry">
            <mxPoint x="706" y="520.02" as="sourcePoint" />
            <mxPoint x="514.6699999999996" y="520.2000000000003" as="targetPoint" />
          </mxGeometry>
        </mxCell>
        <mxCell id="u2G3QsqNVSCs0AIml4cM-23" value="现认案件创建行为" style="shape=umlFrame;whiteSpace=wrap;html=1;width=150;height=30;" parent="2AUEPorlyujOiO6pKWKE-1" vertex="1">
          <mxGeometry x="60" y="70" width="880" height="970" as="geometry" />
        </mxCell>
        <mxCell id="u2G3QsqNVSCs0AIml4cM-2" value="1.新增现认案件()" style="html=1;verticalAlign=bottom;endArrow=block;rounded=0;entryX=0.333;entryY=0;entryDx=0;entryDy=0;entryPerimeter=0;" parent="2AUEPorlyujOiO6pKWKE-1" target="u2G3QsqNVSCs0AIml4cM-1" edge="1">
          <mxGeometry width="80" relative="1" as="geometry">
            <mxPoint x="125" y="201" as="sourcePoint" />
            <mxPoint x="315" y="201" as="targetPoint" />
          </mxGeometry>
        </mxCell>
        <mxCell id="gqOy-YDduhwaGvtHa4qS-6" value="" style="html=1;points=[];perimeter=orthogonalPerimeter;" vertex="1" parent="2AUEPorlyujOiO6pKWKE-1">
          <mxGeometry x="705" y="330" width="10" height="80" as="geometry" />
        </mxCell>
        <mxCell id="gqOy-YDduhwaGvtHa4qS-7" value="" style="edgeStyle=orthogonalEdgeStyle;html=1;align=left;spacingLeft=2;endArrow=block;rounded=0;entryX=1;entryY=0;exitX=1;exitY=0.615;exitDx=0;exitDy=0;exitPerimeter=0;" edge="1" parent="2AUEPorlyujOiO6pKWKE-1">
          <mxGeometry relative="1" as="geometry">
            <mxPoint x="715" y="343.70000000000005" as="sourcePoint" />
            <Array as="points">
              <mxPoint x="750" y="344" />
              <mxPoint x="750" y="363" />
            </Array>
            <mxPoint x="725" y="363" as="targetPoint" />
          </mxGeometry>
        </mxCell>
        <mxCell id="gqOy-YDduhwaGvtHa4qS-8" value="" style="html=1;points=[];perimeter=orthogonalPerimeter;" vertex="1" parent="2AUEPorlyujOiO6pKWKE-1">
          <mxGeometry x="715" y="363" width="10" height="40" as="geometry" />
        </mxCell>
        <mxCell id="gqOy-YDduhwaGvtHa4qS-9" value="1.2.1获取FTR信息()" style="html=1;verticalAlign=bottom;endArrow=block;rounded=0;" edge="1" parent="2AUEPorlyujOiO6pKWKE-1">
          <mxGeometry width="80" relative="1" as="geometry">
            <mxPoint x="516" y="331" as="sourcePoint" />
            <mxPoint x="706" y="331" as="targetPoint" />
          </mxGeometry>
        </mxCell>
        <mxCell id="gqOy-YDduhwaGvtHa4qS-10" value="" style="html=1;verticalAlign=bottom;endArrow=open;dashed=1;endSize=8;rounded=0;curved=1;entryX=0.967;entryY=0.955;entryDx=0;entryDy=0;entryPerimeter=0;exitX=0.1;exitY=0.989;exitDx=0;exitDy=0;exitPerimeter=0;" edge="1" parent="2AUEPorlyujOiO6pKWKE-1">
          <mxGeometry relative="1" as="geometry">
            <mxPoint x="706" y="410.02" as="sourcePoint" />
            <mxPoint x="514.6699999999996" y="410.2000000000003" as="targetPoint" />
          </mxGeometry>
        </mxCell>
        <mxCell id="gqOy-YDduhwaGvtHa4qS-11" value="根据页面传入FTR_No获取FTR()" style="text;html=1;align=center;verticalAlign=middle;resizable=0;points=[];autosize=1;strokeColor=none;fillColor=none;" vertex="1" parent="2AUEPorlyujOiO6pKWKE-1">
          <mxGeometry x="743" y="340" width="190" height="20" as="geometry" />
        </mxCell>
        <mxCell id="u2G3QsqNVSCs0AIml4cM-3" value="" style="html=1;verticalAlign=bottom;endArrow=open;dashed=1;endSize=8;rounded=0;curved=1;entryX=1.067;entryY=0.844;entryDx=0;entryDy=0;entryPerimeter=0;" parent="2AUEPorlyujOiO6pKWKE-1" edge="1">
          <mxGeometry relative="1" as="geometry">
            <mxPoint x="315" y="580" as="sourcePoint" />
            <mxPoint x="125.67000000000007" y="580.0800000000002" as="targetPoint" />
          </mxGeometry>
        </mxCell>
        <mxCell id="gqOy-YDduhwaGvtHa4qS-12" value="" style="html=1;points=[];perimeter=orthogonalPerimeter;" vertex="1" parent="2AUEPorlyujOiO6pKWKE-1">
          <mxGeometry x="315" y="630" width="10" height="379" as="geometry" />
        </mxCell>
        <mxCell id="gqOy-YDduhwaGvtHa4qS-13" value="" style="html=1;points=[];perimeter=orthogonalPerimeter;" vertex="1" parent="2AUEPorlyujOiO6pKWKE-1">
          <mxGeometry x="705" y="869" width="10" height="80" as="geometry" />
        </mxCell>
        <mxCell id="gqOy-YDduhwaGvtHa4qS-14" value="" style="edgeStyle=orthogonalEdgeStyle;html=1;align=left;spacingLeft=2;endArrow=block;rounded=0;entryX=1;entryY=0;exitX=1;exitY=0.615;exitDx=0;exitDy=0;exitPerimeter=0;" edge="1" parent="2AUEPorlyujOiO6pKWKE-1">
          <mxGeometry relative="1" as="geometry">
            <mxPoint x="715" y="882.7" as="sourcePoint" />
            <Array as="points">
              <mxPoint x="750" y="883" />
              <mxPoint x="750" y="902" />
            </Array>
            <mxPoint x="725" y="902" as="targetPoint" />
          </mxGeometry>
        </mxCell>
        <mxCell id="gqOy-YDduhwaGvtHa4qS-15" value="" style="html=1;points=[];perimeter=orthogonalPerimeter;" vertex="1" parent="2AUEPorlyujOiO6pKWKE-1">
          <mxGeometry x="715" y="902" width="10" height="40" as="geometry" />
        </mxCell>
        <mxCell id="gqOy-YDduhwaGvtHa4qS-16" value="1.2.2 提交现认案件()" style="html=1;verticalAlign=bottom;endArrow=block;rounded=0;" edge="1" parent="2AUEPorlyujOiO6pKWKE-1">
          <mxGeometry width="80" relative="1" as="geometry">
            <mxPoint x="516" y="870" as="sourcePoint" />
            <mxPoint x="706" y="870" as="targetPoint" />
          </mxGeometry>
        </mxCell>
        <mxCell id="gqOy-YDduhwaGvtHa4qS-17" value="" style="html=1;points=[];perimeter=orthogonalPerimeter;" vertex="1" parent="2AUEPorlyujOiO6pKWKE-1">
          <mxGeometry x="115" y="630" width="10" height="389" as="geometry" />
        </mxCell>
        <mxCell id="gqOy-YDduhwaGvtHa4qS-18" value="" style="html=1;points=[];perimeter=orthogonalPerimeter;" vertex="1" parent="2AUEPorlyujOiO6pKWKE-1">
          <mxGeometry x="505" y="740" width="10" height="239" as="geometry" />
        </mxCell>
        <mxCell id="gqOy-YDduhwaGvtHa4qS-19" value="1.2 提交现认案件()" style="html=1;verticalAlign=bottom;endArrow=block;rounded=0;" edge="1" parent="2AUEPorlyujOiO6pKWKE-1">
          <mxGeometry width="80" relative="1" as="geometry">
            <mxPoint x="325" y="740" as="sourcePoint" />
            <mxPoint x="505" y="740" as="targetPoint" />
          </mxGeometry>
        </mxCell>
        <mxCell id="gqOy-YDduhwaGvtHa4qS-20" value="" style="html=1;verticalAlign=bottom;endArrow=open;dashed=1;endSize=8;rounded=0;curved=1;" edge="1" parent="2AUEPorlyujOiO6pKWKE-1">
          <mxGeometry relative="1" as="geometry">
            <mxPoint x="511" y="979" as="sourcePoint" />
            <mxPoint x="326" y="979" as="targetPoint" />
          </mxGeometry>
        </mxCell>
        <mxCell id="gqOy-YDduhwaGvtHa4qS-21" value="" style="html=1;points=[];perimeter=orthogonalPerimeter;fillColor=default;" vertex="1" parent="2AUEPorlyujOiO6pKWKE-1">
          <mxGeometry x="325" y="668" width="10" height="40" as="geometry" />
        </mxCell>
        <mxCell id="gqOy-YDduhwaGvtHa4qS-22" value="1.1 页面参数校验()" style="edgeStyle=orthogonalEdgeStyle;html=1;align=left;spacingLeft=2;endArrow=block;rounded=0;entryX=1;entryY=0;" edge="1" parent="2AUEPorlyujOiO6pKWKE-1" target="gqOy-YDduhwaGvtHa4qS-21">
          <mxGeometry relative="1" as="geometry">
            <mxPoint x="325" y="648" as="sourcePoint" />
            <Array as="points">
              <mxPoint x="360" y="648" />
              <mxPoint x="360" y="668" />
            </Array>
          </mxGeometry>
        </mxCell>
        <mxCell id="gqOy-YDduhwaGvtHa4qS-23" value="1.2.2.1 保存现认案件.待提交()&lt;br&gt;持久化" style="text;html=1;align=center;verticalAlign=middle;resizable=0;points=[];autosize=1;strokeColor=none;fillColor=none;" vertex="1" parent="2AUEPorlyujOiO6pKWKE-1">
          <mxGeometry x="743" y="879" width="180" height="30" as="geometry" />
        </mxCell>
        <mxCell id="gqOy-YDduhwaGvtHa4qS-24" value="" style="html=1;verticalAlign=bottom;endArrow=open;dashed=1;endSize=8;rounded=0;curved=1;entryX=0.967;entryY=0.955;entryDx=0;entryDy=0;entryPerimeter=0;exitX=0.1;exitY=0.989;exitDx=0;exitDy=0;exitPerimeter=0;" edge="1" parent="2AUEPorlyujOiO6pKWKE-1">
          <mxGeometry relative="1" as="geometry">
            <mxPoint x="706" y="949.02" as="sourcePoint" />
            <mxPoint x="514.6699999999992" y="949.2000000000003" as="targetPoint" />
          </mxGeometry>
        </mxCell>
        <mxCell id="gqOy-YDduhwaGvtHa4qS-25" value="1.提交现认案件()" style="html=1;verticalAlign=bottom;endArrow=block;rounded=0;entryX=0.333;entryY=0;entryDx=0;entryDy=0;entryPerimeter=0;" edge="1" parent="2AUEPorlyujOiO6pKWKE-1" target="gqOy-YDduhwaGvtHa4qS-12">
          <mxGeometry width="80" relative="1" as="geometry">
            <mxPoint x="125" y="630" as="sourcePoint" />
            <mxPoint x="315" y="630" as="targetPoint" />
          </mxGeometry>
        </mxCell>
        <mxCell id="gqOy-YDduhwaGvtHa4qS-26" value="" style="html=1;points=[];perimeter=orthogonalPerimeter;" vertex="1" parent="2AUEPorlyujOiO6pKWKE-1">
          <mxGeometry x="705" y="759" width="10" height="80" as="geometry" />
        </mxCell>
        <mxCell id="gqOy-YDduhwaGvtHa4qS-27" value="" style="edgeStyle=orthogonalEdgeStyle;html=1;align=left;spacingLeft=2;endArrow=block;rounded=0;entryX=1;entryY=0;exitX=1;exitY=0.615;exitDx=0;exitDy=0;exitPerimeter=0;" edge="1" parent="2AUEPorlyujOiO6pKWKE-1">
          <mxGeometry relative="1" as="geometry">
            <mxPoint x="715" y="772.7" as="sourcePoint" />
            <Array as="points">
              <mxPoint x="750" y="773" />
              <mxPoint x="750" y="792" />
            </Array>
            <mxPoint x="725" y="791.9999999999999" as="targetPoint" />
          </mxGeometry>
        </mxCell>
        <mxCell id="gqOy-YDduhwaGvtHa4qS-28" value="" style="html=1;points=[];perimeter=orthogonalPerimeter;" vertex="1" parent="2AUEPorlyujOiO6pKWKE-1">
          <mxGeometry x="715" y="792" width="10" height="40" as="geometry" />
        </mxCell>
        <mxCell id="gqOy-YDduhwaGvtHa4qS-29" value="1.2.1获取FTR信息()" style="html=1;verticalAlign=bottom;endArrow=block;rounded=0;" edge="1" parent="2AUEPorlyujOiO6pKWKE-1">
          <mxGeometry width="80" relative="1" as="geometry">
            <mxPoint x="516" y="760" as="sourcePoint" />
            <mxPoint x="706" y="760" as="targetPoint" />
          </mxGeometry>
        </mxCell>
        <mxCell id="gqOy-YDduhwaGvtHa4qS-30" value="" style="html=1;verticalAlign=bottom;endArrow=open;dashed=1;endSize=8;rounded=0;curved=1;entryX=0.967;entryY=0.955;entryDx=0;entryDy=0;entryPerimeter=0;exitX=0.1;exitY=0.989;exitDx=0;exitDy=0;exitPerimeter=0;" edge="1" parent="2AUEPorlyujOiO6pKWKE-1">
          <mxGeometry relative="1" as="geometry">
            <mxPoint x="706" y="839.02" as="sourcePoint" />
            <mxPoint x="514.6699999999992" y="839.2000000000003" as="targetPoint" />
          </mxGeometry>
        </mxCell>
        <mxCell id="gqOy-YDduhwaGvtHa4qS-31" value="" style="html=1;verticalAlign=bottom;endArrow=open;dashed=1;endSize=8;rounded=0;curved=1;entryX=1.067;entryY=0.844;entryDx=0;entryDy=0;entryPerimeter=0;" edge="1" parent="2AUEPorlyujOiO6pKWKE-1">
          <mxGeometry relative="1" as="geometry">
            <mxPoint x="315" y="1009" as="sourcePoint" />
            <mxPoint x="125.67000000000007" y="1009.0800000000002" as="targetPoint" />
          </mxGeometry>
        </mxCell>
        <mxCell id="gqOy-YDduhwaGvtHa4qS-32" value="根据页面传入FTR_No获取FTR()" style="text;html=1;align=center;verticalAlign=middle;resizable=0;points=[];autosize=1;strokeColor=none;fillColor=none;" vertex="1" parent="2AUEPorlyujOiO6pKWKE-1">
          <mxGeometry x="743" y="770" width="190" height="20" as="geometry" />
        </mxCell>
        <mxCell id="gqOy-YDduhwaGvtHa4qS-33" value="Alt" style="shape=umlFrame;whiteSpace=wrap;html=1;strokeColor=#1A1A1A;width=40;height=20;" vertex="1" parent="2AUEPorlyujOiO6pKWKE-1">
          <mxGeometry x="410" y="850" width="510" height="120" as="geometry" />
        </mxCell>
        <mxCell id="gqOy-YDduhwaGvtHa4qS-34" value="【存在FTR】" style="text;html=1;align=center;verticalAlign=middle;resizable=0;points=[];autosize=1;strokeColor=none;fillColor=none;" vertex="1" parent="2AUEPorlyujOiO6pKWKE-1">
          <mxGeometry x="395" y="880" width="90" height="20" as="geometry" />
        </mxCell>
        <mxCell id="gqOy-YDduhwaGvtHa4qS-35" value="Alt" style="shape=umlFrame;whiteSpace=wrap;html=1;strokeColor=#1A1A1A;width=40;height=20;" vertex="1" parent="2AUEPorlyujOiO6pKWKE-1">
          <mxGeometry x="410" y="420" width="510" height="120" as="geometry" />
        </mxCell>
        <mxCell id="gqOy-YDduhwaGvtHa4qS-36" value="【存在FTR】" style="text;html=1;align=center;verticalAlign=middle;resizable=0;points=[];autosize=1;strokeColor=none;fillColor=none;" vertex="1" parent="2AUEPorlyujOiO6pKWKE-1">
          <mxGeometry x="395" y="450" width="90" height="20" as="geometry" />
        </mxCell>
        <mxCell id="gqOy-YDduhwaGvtHa4qS-37" value="Opt" style="shape=umlFrame;whiteSpace=wrap;html=1;strokeColor=#1A1A1A;width=40;height=20;" vertex="1" parent="2AUEPorlyujOiO6pKWKE-1">
          <mxGeometry x="90" y="170" width="840" height="860" as="geometry" />
        </mxCell>
        <mxCell id="gqOy-YDduhwaGvtHa4qS-38" value="" style="line;strokeWidth=1;fillColor=none;align=left;verticalAlign=middle;spacingTop=-1;spacingLeft=3;spacingRight=3;rotatable=0;labelPosition=right;points=[];portConstraint=eastwest;dashed=1;" vertex="1" parent="2AUEPorlyujOiO6pKWKE-1">
          <mxGeometry x="90" y="600" width="840" height="8" as="geometry" />
        </mxCell>
      </root>
    </mxGraphModel>
  </diagram>
  <diagram name="Page-13" id="Wuc_-2MXNSmVFalXiUAA">
    <mxGraphModel dx="2952" dy="1124" grid="1" gridSize="10" guides="1" tooltips="1" connect="1" arrows="1" fold="1" page="1" pageScale="1" pageWidth="827" pageHeight="1169" math="0" shadow="0">
      <root>
        <mxCell id="Oy_1lG7B_vClx3gQaHrb-0" />
        <mxCell id="Oy_1lG7B_vClx3gQaHrb-1" parent="Oy_1lG7B_vClx3gQaHrb-0" />
        <mxCell id="IM_CD9CXRN_R-xNdVudj-0" value="" style="rounded=0;whiteSpace=wrap;html=1;dashed=1;fillColor=#AADA90;strokeColor=#82b366;" vertex="1" parent="Oy_1lG7B_vClx3gQaHrb-1">
          <mxGeometry x="-715" y="336" width="1325" height="284" as="geometry" />
        </mxCell>
        <mxCell id="IM_CD9CXRN_R-xNdVudj-1" style="edgeStyle=orthogonalEdgeStyle;rounded=0;orthogonalLoop=1;jettySize=auto;html=1;entryX=0.5;entryY=0;entryDx=0;entryDy=0;endArrow=block;endFill=1;" edge="1" parent="Oy_1lG7B_vClx3gQaHrb-1" source="IM_CD9CXRN_R-xNdVudj-3">
          <mxGeometry relative="1" as="geometry">
            <mxPoint x="-331" y="557" as="targetPoint" />
          </mxGeometry>
        </mxCell>
        <mxCell id="IM_CD9CXRN_R-xNdVudj-2" value="退回" style="edgeLabel;html=1;align=center;verticalAlign=middle;resizable=0;points=[];" vertex="1" connectable="0" parent="IM_CD9CXRN_R-xNdVudj-1">
          <mxGeometry x="0.0979" relative="1" as="geometry">
            <mxPoint as="offset" />
          </mxGeometry>
        </mxCell>
        <mxCell id="IM_CD9CXRN_R-xNdVudj-3" value="信息待审核" style="rounded=0;whiteSpace=wrap;html=1;" vertex="1" parent="Oy_1lG7B_vClx3gQaHrb-1">
          <mxGeometry x="-391" y="417" width="120" height="60" as="geometry" />
        </mxCell>
        <mxCell id="IM_CD9CXRN_R-xNdVudj-4" style="edgeStyle=none;rounded=0;orthogonalLoop=1;jettySize=auto;html=1;entryX=0;entryY=0.5;entryDx=0;entryDy=0;endArrow=none;endFill=0;" edge="1" parent="Oy_1lG7B_vClx3gQaHrb-1">
          <mxGeometry relative="1" as="geometry">
            <mxPoint x="500" y="380" as="sourcePoint" />
            <mxPoint x="500" y="380" as="targetPoint" />
          </mxGeometry>
        </mxCell>
        <mxCell id="IM_CD9CXRN_R-xNdVudj-5" value="销售店反馈状态迁移" style="text;html=1;align=center;verticalAlign=middle;resizable=0;points=[];autosize=1;strokeColor=none;fillColor=none;" vertex="1" parent="Oy_1lG7B_vClx3gQaHrb-1">
          <mxGeometry x="-685" y="336" width="120" height="20" as="geometry" />
        </mxCell>
        <mxCell id="IM_CD9CXRN_R-xNdVudj-6" value="已退回" style="rounded=0;whiteSpace=wrap;html=1;" vertex="1" parent="Oy_1lG7B_vClx3gQaHrb-1">
          <mxGeometry x="-391" y="555" width="120" height="60" as="geometry" />
        </mxCell>
        <mxCell id="IM_CD9CXRN_R-xNdVudj-7" style="edgeStyle=none;rounded=0;orthogonalLoop=1;jettySize=auto;html=1;startArrow=none;startFill=0;endArrow=block;endFill=1;" edge="1" parent="Oy_1lG7B_vClx3gQaHrb-1" source="IM_CD9CXRN_R-xNdVudj-9" target="IM_CD9CXRN_R-xNdVudj-3">
          <mxGeometry relative="1" as="geometry" />
        </mxCell>
        <mxCell id="IM_CD9CXRN_R-xNdVudj-8" value="上报" style="edgeLabel;html=1;align=center;verticalAlign=middle;resizable=0;points=[];" vertex="1" connectable="0" parent="IM_CD9CXRN_R-xNdVudj-7">
          <mxGeometry x="-0.0956" y="1" relative="1" as="geometry">
            <mxPoint y="-9" as="offset" />
          </mxGeometry>
        </mxCell>
        <mxCell id="IM_CD9CXRN_R-xNdVudj-9" value="待提交" style="rounded=0;whiteSpace=wrap;html=1;" vertex="1" parent="Oy_1lG7B_vClx3gQaHrb-1">
          <mxGeometry x="-611" y="417" width="120" height="60" as="geometry" />
        </mxCell>
        <mxCell id="IM_CD9CXRN_R-xNdVudj-10" style="edgeStyle=none;rounded=0;orthogonalLoop=1;jettySize=auto;html=1;startArrow=none;startFill=0;endArrow=block;endFill=1;" edge="1" parent="Oy_1lG7B_vClx3gQaHrb-1">
          <mxGeometry relative="1" as="geometry">
            <mxPoint x="-711" y="447" as="sourcePoint" />
            <mxPoint x="-610" y="446.5799999999999" as="targetPoint" />
          </mxGeometry>
        </mxCell>
        <mxCell id="IM_CD9CXRN_R-xNdVudj-11" value="&lt;span style=&quot;font-size: 12px ; background-color: rgb(248 , 249 , 250)&quot;&gt;保存&lt;/span&gt;" style="edgeLabel;html=1;align=center;verticalAlign=middle;resizable=0;points=[];" vertex="1" connectable="0" parent="IM_CD9CXRN_R-xNdVudj-10">
          <mxGeometry x="-0.231" relative="1" as="geometry">
            <mxPoint as="offset" />
          </mxGeometry>
        </mxCell>
        <mxCell id="IM_CD9CXRN_R-xNdVudj-12" value="" style="curved=1;endArrow=block;html=1;rounded=0;exitX=0.063;exitY=1.042;exitDx=0;exitDy=0;exitPerimeter=0;endFill=1;" edge="1" parent="Oy_1lG7B_vClx3gQaHrb-1" target="IM_CD9CXRN_R-xNdVudj-3">
          <mxGeometry width="50" height="50" relative="1" as="geometry">
            <mxPoint x="-714.7" y="447.84000000000015" as="sourcePoint" />
            <mxPoint x="-241" y="337" as="targetPoint" />
            <Array as="points">
              <mxPoint x="-521" y="357" />
              <mxPoint x="-311" y="347" />
            </Array>
          </mxGeometry>
        </mxCell>
        <mxCell id="IM_CD9CXRN_R-xNdVudj-13" value="上报" style="edgeLabel;html=1;align=center;verticalAlign=middle;resizable=0;points=[];" vertex="1" connectable="0" parent="IM_CD9CXRN_R-xNdVudj-12">
          <mxGeometry x="0.0291" y="-7" relative="1" as="geometry">
            <mxPoint as="offset" />
          </mxGeometry>
        </mxCell>
        <mxCell id="IM_CD9CXRN_R-xNdVudj-14" style="edgeStyle=orthogonalEdgeStyle;rounded=0;orthogonalLoop=1;jettySize=auto;html=1;exitX=0.5;exitY=1;exitDx=0;exitDy=0;" edge="1" parent="Oy_1lG7B_vClx3gQaHrb-1">
          <mxGeometry relative="1" as="geometry">
            <mxPoint x="-331" y="637" as="sourcePoint" />
            <mxPoint x="-331" y="637" as="targetPoint" />
          </mxGeometry>
        </mxCell>
        <mxCell id="IM_CD9CXRN_R-xNdVudj-15" style="edgeStyle=orthogonalEdgeStyle;rounded=0;orthogonalLoop=1;jettySize=auto;html=1;startArrow=none;startFill=0;endArrow=block;endFill=1;exitX=0;exitY=0.5;exitDx=0;exitDy=0;curved=1;" edge="1" parent="Oy_1lG7B_vClx3gQaHrb-1" source="IM_CD9CXRN_R-xNdVudj-6">
          <mxGeometry relative="1" as="geometry">
            <mxPoint x="-371" y="597" as="sourcePoint" />
            <mxPoint x="-391" y="447" as="targetPoint" />
            <Array as="points">
              <mxPoint x="-460" y="585" />
              <mxPoint x="-460" y="447" />
            </Array>
          </mxGeometry>
        </mxCell>
        <mxCell id="IM_CD9CXRN_R-xNdVudj-16" value="重新提交" style="edgeLabel;html=1;align=center;verticalAlign=middle;resizable=0;points=[];" vertex="1" connectable="0" parent="IM_CD9CXRN_R-xNdVudj-15">
          <mxGeometry x="-0.0956" y="1" relative="1" as="geometry">
            <mxPoint y="-9" as="offset" />
          </mxGeometry>
        </mxCell>
        <mxCell id="IM_CD9CXRN_R-xNdVudj-18" style="edgeStyle=none;rounded=0;orthogonalLoop=1;jettySize=auto;html=1;startArrow=none;startFill=0;endArrow=block;endFill=1;" edge="1" parent="Oy_1lG7B_vClx3gQaHrb-1">
          <mxGeometry relative="1" as="geometry">
            <mxPoint x="-271" y="447" as="sourcePoint" />
            <mxPoint x="-190" y="447" as="targetPoint" />
          </mxGeometry>
        </mxCell>
        <mxCell id="IM_CD9CXRN_R-xNdVudj-19" value="发布" style="edgeLabel;html=1;align=center;verticalAlign=middle;resizable=0;points=[];" vertex="1" connectable="0" parent="IM_CD9CXRN_R-xNdVudj-18">
          <mxGeometry x="-0.0956" y="1" relative="1" as="geometry">
            <mxPoint y="-9" as="offset" />
          </mxGeometry>
        </mxCell>
        <mxCell id="IM_CD9CXRN_R-xNdVudj-20" value="是否现认" style="shape=rhombus;perimeter=rhombusPerimeter;whiteSpace=wrap;html=1;align=center;strokeColor=#1A1A1A;" vertex="1" parent="Oy_1lG7B_vClx3gQaHrb-1">
          <mxGeometry x="-190" y="417" width="140" height="60" as="geometry" />
        </mxCell>
        <mxCell id="IM_CD9CXRN_R-xNdVudj-21" value="已完结" style="rounded=0;whiteSpace=wrap;html=1;" vertex="1" parent="Oy_1lG7B_vClx3gQaHrb-1">
          <mxGeometry x="-180" y="555" width="120" height="60" as="geometry" />
        </mxCell>
        <mxCell id="IM_CD9CXRN_R-xNdVudj-22" value="已终止" style="rounded=0;whiteSpace=wrap;html=1;" vertex="1" parent="Oy_1lG7B_vClx3gQaHrb-1">
          <mxGeometry x="60" y="555" width="120" height="60" as="geometry" />
        </mxCell>
        <mxCell id="IM_CD9CXRN_R-xNdVudj-23" value="现地待确认&lt;span style=&quot;color: rgba(0 , 0 , 0 , 0) ; font-family: monospace ; font-size: 0px&quot;&gt;%3CmxGraphModel%3E%3Croot%3E%3CmxCell%20id%3D%220%22%2F%3E%3CmxCell%20id%3D%221%22%20parent%3D%220%22%2F%3E%3CmxCell%20id%3D%222%22%20value%3D%22%E5%B7%B2%E5%AE%8C%E7%BB%93%22%20style%3D%22rounded%3D0%3BwhiteSpace%3Dwrap%3Bhtml%3D1%3B%22%20vertex%3D%221%22%20parent%3D%221%22%3E%3CmxGeometry%20x%3D%22-180%22%20y%3D%22555%22%20width%3D%22120%22%20height%3D%2260%22%20as%3D%22geometry%22%2F%3E%3C%2FmxCell%3E%3C%2Froot%3E%3C%2FmxGraphModel%3E&lt;/span&gt;" style="rounded=0;whiteSpace=wrap;html=1;" vertex="1" parent="Oy_1lG7B_vClx3gQaHrb-1">
          <mxGeometry x="60" y="417" width="120" height="60" as="geometry" />
        </mxCell>
        <mxCell id="IM_CD9CXRN_R-xNdVudj-24" value="现地待实施" style="rounded=0;whiteSpace=wrap;html=1;" vertex="1" parent="Oy_1lG7B_vClx3gQaHrb-1">
          <mxGeometry x="260" y="417" width="120" height="60" as="geometry" />
        </mxCell>
        <mxCell id="IM_CD9CXRN_R-xNdVudj-25" value="现认完结" style="rounded=0;whiteSpace=wrap;html=1;" vertex="1" parent="Oy_1lG7B_vClx3gQaHrb-1">
          <mxGeometry x="470" y="417" width="120" height="60" as="geometry" />
        </mxCell>
        <mxCell id="IM_CD9CXRN_R-xNdVudj-32" style="edgeStyle=none;rounded=0;orthogonalLoop=1;jettySize=auto;html=1;startArrow=none;startFill=0;endArrow=block;endFill=1;exitX=1;exitY=0.5;exitDx=0;exitDy=0;" edge="1" parent="Oy_1lG7B_vClx3gQaHrb-1" source="IM_CD9CXRN_R-xNdVudj-20" target="IM_CD9CXRN_R-xNdVudj-23">
          <mxGeometry relative="1" as="geometry">
            <mxPoint x="-261" y="457" as="sourcePoint" />
            <mxPoint x="-180" y="457" as="targetPoint" />
          </mxGeometry>
        </mxCell>
        <mxCell id="IM_CD9CXRN_R-xNdVudj-33" value="是" style="edgeLabel;html=1;align=center;verticalAlign=middle;resizable=0;points=[];" vertex="1" connectable="0" parent="IM_CD9CXRN_R-xNdVudj-32">
          <mxGeometry x="-0.0956" y="1" relative="1" as="geometry">
            <mxPoint y="-9" as="offset" />
          </mxGeometry>
        </mxCell>
        <mxCell id="IM_CD9CXRN_R-xNdVudj-34" style="edgeStyle=none;rounded=0;orthogonalLoop=1;jettySize=auto;html=1;startArrow=none;startFill=0;endArrow=block;endFill=1;" edge="1" parent="Oy_1lG7B_vClx3gQaHrb-1">
          <mxGeometry relative="1" as="geometry">
            <mxPoint x="180" y="447" as="sourcePoint" />
            <mxPoint x="261" y="447" as="targetPoint" />
          </mxGeometry>
        </mxCell>
        <mxCell id="IM_CD9CXRN_R-xNdVudj-35" value="通过" style="edgeLabel;html=1;align=center;verticalAlign=middle;resizable=0;points=[];" vertex="1" connectable="0" parent="IM_CD9CXRN_R-xNdVudj-34">
          <mxGeometry x="-0.0956" y="1" relative="1" as="geometry">
            <mxPoint y="-9" as="offset" />
          </mxGeometry>
        </mxCell>
        <mxCell id="IM_CD9CXRN_R-xNdVudj-36" style="edgeStyle=none;rounded=0;orthogonalLoop=1;jettySize=auto;html=1;startArrow=none;startFill=0;endArrow=block;endFill=1;entryX=0;entryY=0.5;entryDx=0;entryDy=0;" edge="1" parent="Oy_1lG7B_vClx3gQaHrb-1" target="IM_CD9CXRN_R-xNdVudj-25">
          <mxGeometry relative="1" as="geometry">
            <mxPoint x="380" y="447" as="sourcePoint" />
            <mxPoint x="461" y="447" as="targetPoint" />
          </mxGeometry>
        </mxCell>
        <mxCell id="IM_CD9CXRN_R-xNdVudj-37" value="现认补录" style="edgeLabel;html=1;align=center;verticalAlign=middle;resizable=0;points=[];" vertex="1" connectable="0" parent="IM_CD9CXRN_R-xNdVudj-36">
          <mxGeometry x="-0.0956" y="1" relative="1" as="geometry">
            <mxPoint y="-9" as="offset" />
          </mxGeometry>
        </mxCell>
        <mxCell id="IM_CD9CXRN_R-xNdVudj-38" style="edgeStyle=none;rounded=0;orthogonalLoop=1;jettySize=auto;html=1;startArrow=none;startFill=0;endArrow=block;endFill=1;exitX=0.5;exitY=1;exitDx=0;exitDy=0;" edge="1" parent="Oy_1lG7B_vClx3gQaHrb-1" source="IM_CD9CXRN_R-xNdVudj-20" target="IM_CD9CXRN_R-xNdVudj-21">
          <mxGeometry relative="1" as="geometry">
            <mxPoint x="-231" y="487" as="sourcePoint" />
            <mxPoint x="-150" y="487" as="targetPoint" />
          </mxGeometry>
        </mxCell>
        <mxCell id="IM_CD9CXRN_R-xNdVudj-39" value="否" style="edgeLabel;html=1;align=center;verticalAlign=middle;resizable=0;points=[];" vertex="1" connectable="0" parent="IM_CD9CXRN_R-xNdVudj-38">
          <mxGeometry x="-0.0956" y="1" relative="1" as="geometry">
            <mxPoint y="-9" as="offset" />
          </mxGeometry>
        </mxCell>
        <mxCell id="IM_CD9CXRN_R-xNdVudj-40" style="edgeStyle=none;rounded=0;orthogonalLoop=1;jettySize=auto;html=1;startArrow=none;startFill=0;endArrow=block;endFill=1;exitX=0.5;exitY=1;exitDx=0;exitDy=0;entryX=0.5;entryY=0;entryDx=0;entryDy=0;" edge="1" parent="Oy_1lG7B_vClx3gQaHrb-1" source="IM_CD9CXRN_R-xNdVudj-23" target="IM_CD9CXRN_R-xNdVudj-22">
          <mxGeometry relative="1" as="geometry">
            <mxPoint x="-221" y="497" as="sourcePoint" />
            <mxPoint x="-140" y="497" as="targetPoint" />
          </mxGeometry>
        </mxCell>
        <mxCell id="IM_CD9CXRN_R-xNdVudj-41" value="拒绝" style="edgeLabel;html=1;align=center;verticalAlign=middle;resizable=0;points=[];" vertex="1" connectable="0" parent="IM_CD9CXRN_R-xNdVudj-40">
          <mxGeometry x="-0.0956" y="1" relative="1" as="geometry">
            <mxPoint y="-9" as="offset" />
          </mxGeometry>
        </mxCell>
      </root>
    </mxGraphModel>
  </diagram>
</mxfile>
